<svg width="4.1781mm" height="49.375mm" version="1.1" viewBox="0 0 4.1781 49.375" xmlns="http://www.w3.org/2000/svg">
 <g fill="none" stroke="#000" stroke-width=".26458px">
  <path d="m1.4794 7.5825c0-0.01794 0.00238-0.21953 0-0.22191-0.017435-0.017433-0.056534 0.017436-0.073969 0-0.034869-0.034869 0.034869-0.11307 0-0.14794-0.017435-0.017436-0.056534 0.017436-0.073969 0-0.036984-0.036984 0.036984-0.18492 0-0.22191-0.017435-0.017436-0.056534 0.017436-0.073969 0-0.034869-0.034869 0.034869-0.11307 0-0.14794-0.017435-0.017436-0.056534 0.017433-0.073969 0-0.036984-0.036985 0.036984-0.18492 0-0.22191-0.017435-0.017436-0.056534 0.017436-0.073969 0-0.034869-0.034869 0.034869-0.11307 0-0.14794-0.017435-0.017436-0.056534 0.017433-0.073969 0-0.017435-0.017435 0.011027-0.051916 0-0.073969-0.015594-0.031188-0.058375-0.042781-0.073969-0.073969-0.022053-0.044107 0.034869-0.11307 0-0.14794-0.017435-0.017436-0.056534 0.017433-0.073969 0-0.034869-0.034869 0.034869-0.11307 0-0.14794-0.017435-0.017433-0.056534 0.017433-0.073969 0-0.017435-0.017434 0.011027-0.051916 0-0.073969-0.015594-0.031188-0.058375-0.042781-0.073969-0.073969-0.011027-0.022053 0.011027-0.051916 0-0.073969-0.015594-0.031188-0.058375-0.042781-0.073969-0.073969-0.014664-0.029328 0.015122-0.20679 0-0.22191-0.017435-0.017436-0.056534 0.017433-0.073969 0-0.034869-0.03487 0.022053-0.10383 0-0.14794-0.015594-0.031188-0.058375-0.042781-0.073969-0.073969-0.014664-0.029328 0.015122-0.20679 0-0.22191-0.017435-0.017433-0.056534 0.017436-0.073969 0-0.036984-0.036984 0.036984-0.18492 0-0.22191-0.017435-0.017433-0.056534 0.017433-0.073969 0-0.017435-0.017434 0-0.049313 0-0.073969v-0.36985-0.073969c0-0.024656-0.017435-0.056533 0-0.073969 0.098625-0.098626 0.073969 0.12328 0.073969-0.073969v-0.51778c0-0.024656-0.017435-0.056536 0-0.073969 0.017435-0.017436 0.056534 0.017433 0.073969 0 0.017799-0.017799-0.017799-0.27808 0-0.29588 0.017435-0.017436 0.056534 0.017433 0.073969 0 0.017799-0.017799-0.017799-0.27808 0-0.29588 0.017435-0.017433 0.056534 0.017436 0.073969 0 0.036984-0.036984-0.036985-0.18492 0-0.22191 0.017435-0.017433 0.056534 0.017433 0.073969 0 0.036984-0.036985-0.036985-0.18492 0-0.22191 0.017435-0.017435 0.056534 0.017435 0.073969 0 0.036985-0.036984-0.036984-0.18492 0-0.22191 0.017435-0.017435 0.056534 0.017435 0.073969 0 0.034869-0.034869-0.022053-0.10383 0-0.14794 0.015594-0.031188 0.058375-0.042781 0.073969-0.073969 0.022053-0.044107-0.034869-0.11307 0-0.14794 0.017435-0.017435 0.056534 0.017435 0.073969 0 0.034869-0.034869-0.034869-0.11307 0-0.14794 0.017435-0.017435 0.056534 0.017435 0.073969 0 0.034869-0.034869-0.022053-0.10383 0-0.14794 0.015594-0.031188 0.058375-0.042781 0.073969-0.073969 0.022053-0.044107-0.034869-0.11307 0-0.14794 0.017435-0.017435 0.056534 0.017435 0.073969 0 0.034869-0.034869-0.022053-0.10383 0-0.14794 0.015594-0.031188 0.058375-0.042781 0.073969-0.073969 0.022053-0.044107-0.034869-0.11307 0-0.14794 0.017435-0.017435 0.056534 0.017435 0.073969 0 0.017799-0.017799-0.017799-0.27808 0-0.29588 0.017435-0.017435 0.056534 0.017435 0.073969 0 0.017799-0.017799-0.017799-0.27808 0-0.29588 0.017435-0.017435 0.056534 0.017435 0.073969 0 0.034869-0.034869-0.034869-0.11307 0-0.14794 0.017435-0.017435 0.049313 0 0.073969 0v-0.29588c0.024656 0.14794 0.026542 0.30153 0.073969 0.44381 0.0078 0.023391 0.056534-0.017435 0.073969 0 0.017799 0.017799-0.017799 0.27808 0 0.29588 0.017435 0.017435 0.056534-0.017435 0.073969 0 0.034869 0.034869-0.034869 0.11307 0 0.14794 0.017435 0.017435 0.056534-0.017435 0.073969 0 0.034869 0.034869-0.034869 0.11307 0 0.14794 0.017435 0.017435 0.056534-0.017435 0.073969 0 0.034869 0.034869-0.034869 0.11307 0 0.14794 0.017435 0.017435 0.056534-0.017435 0.073969 0 0.036984 0.036985-0.036985 0.18492 0 0.22191 0.017435 0.017435 0.056534-0.017435 0.073969 0s-0.011027 0.051916 0 0.073969c0.015594 0.031188 0.058375 0.042781 0.073969 0.073969 0.011027 0.022053-0.011027 0.051916 0 0.073969 0.015594 0.031188 0.058375 0.042781 0.073969 0.073969 0.011027 0.022053-0.011027 0.051916 0 0.073969 0.015594 0.031188 0.058375 0.042781 0.073969 0.073969 0.022053 0.044107-0.034869 0.11307 0 0.14794 0.017435 0.017435 0.056534-0.017435 0.073969 0 0.034869 0.034869-0.034869 0.11307 0 0.14794 0.017435 0.017435 0.056534-0.017435 0.073969 0s-0.011027 0.051916 0 0.073969c0.015594 0.031188 0.058375 0.042781 0.073969 0.073969 0.011027 0.022053-0.017435 0.056534 0 0.073969s0.056534-0.017435 0.073969 0c0.034869 0.034869-0.034869 0.11307 0 0.14794 0.017435 0.017435 0.056534-0.017435 0.073969 0s-0.011027 0.051916 0 0.073969c0.015594 0.031188 0.058375 0.042781 0.073969 0.073969 0.011027 0.022053-0.017435 0.056534 0 0.073969s0.056534-0.017435 0.073969 0-0.017435 0.056534 0 0.073969 0.056534-0.017435 0.073969 0c0.034869 0.034869-0.034869 0.11307 0 0.14794 0.017435 0.017435 0.056534-0.017435 0.073969 0s-0.011027 0.051916 0 0.073969c0.015594 0.031188 0.058375 0.042781 0.073969 0.073969 0.011027 0.022053-0.017435 0.056534 0 0.073969s0.056534-0.017435 0.073969 0-0.017435 0.056534 0 0.073969 0.056534-0.017435 0.073969 0c0.034869 0.034869-0.034869 0.11307 0 0.14794 0.017435 0.017435 0.056534-0.017435 0.073969 0 0.034869 0.034869-0.034869 0.11307 0 0.14794 0.017435 0.017435 0.056534-0.017435 0.073969 0s-0.017435 0.056534 0 0.073969 0.056534-0.017435 0.073969 0-0.017435 0.056534 0 0.073969 0.056534-0.017435 0.073969 0c0.034869 0.034869-0.034869 0.11307 0 0.14794 0.017435 0.017435 0.056534-0.017435 0.073969 0 0.034869 0.034869-0.034869 0.11307 0 0.14794 0.017435 0.017435 0.056534-0.017435 0.073969 0 0.036985 0.036984-0.036984 0.18492 0 0.22191 0.017435 0.017435 0.056534-0.017435 0.073969 0 0.015122 0.015122-0.014664 0.19258 0 0.22191 0.015594 0.031188 0.058375 0.042781 0.073969 0.073969 0.020064 0.040127-0.02024 0.27564 0 0.29588 0.017435 0.017435 0.056534-0.017435 0.073969 0 0.00238 0.00238 0 0.20397 0 0.22191v0.44381 0.073969c0 0.024656 0.011027 0.051916 0 0.073969-0.015594 0.031188-0.058375 0.042781-0.073969 0.073969-0.022053 0.044107 0.034869 0.11307 0 0.14794-0.017435 0.017435-0.056534-0.017435-0.073969 0-0.015122 0.015122 0.014664 0.19258 0 0.22191-0.015594 0.031188-0.058375 0.042781-0.073969 0.073969-0.022053 0.044107 0.034869 0.11307 0 0.14794-0.017435 0.017435-0.056534-0.017435-0.073969 0-0.036985 0.036985 0.036984 0.18492 0 0.22191-0.017435 0.017435-0.056534-0.017435-0.073969 0-0.036984 0.036985 0.036984 0.18492 0 0.22191-0.017435 0.017435-0.056534-0.017435-0.073969 0-0.036984 0.036985 0.036985 0.18492 0 0.22191-0.017435 0.017435-0.056534-0.017435-0.073969 0-0.036985 0.036984 0.036984 0.18492 0 0.22191-0.017435 0.017435-0.056534-0.017435-0.073969 0s0.011027 0.051916 0 0.073969c-0.015594 0.031188-0.058375 0.042781-0.073969 0.073969-0.022053 0.044107 0.034869 0.11307 0 0.14794-0.017435 0.017435-0.056534-0.017435-0.073969 0-0.034869 0.034869 0.034869 0.11307 0 0.14794-0.017435 0.017435-0.056534-0.017435-0.073969 0-0.034869 0.034869 0.034869 0.11307 0 0.14794-0.017435 0.017435-0.056534-0.017435-0.073969 0-0.036985 0.036985 0.036984 0.18492 0 0.22191-0.017435 0.017435-0.056534-0.017435-0.073969 0-0.034869 0.034869 0.034869 0.11307 0 0.14794-0.017435 0.017435-0.056534-0.017435-0.073969 0-0.036984 0.036985 0.036985 0.18492 0 0.22191-0.017435 0.017435-0.056534-0.017435-0.073969 0s0 0.049313 0 0.073969c0 0.017939 0.00238 0.21953 0 0.22191-0.017435 0.017435-0.049313 0-0.073969 0"/>
  <path d="m1.4794 7.5825c-0.024657 0.073969-0.073969 0.14394-0.073969 0.22191 0 0.024656 0.049313 0 0.073969 0s0.073969 0.024656 0.073969 0c0-0.077971-0.15043-0.20662-0.073969-0.22191 0.15291-0.030582 0.29387 0.1051 0.44381 0.14794 0.050843 0.014526 0.35183-0.018021 0.36985 0 0.017435 0.017436-0.017435 0.056534 0 0.073969 0.034869 0.034869 0.11307-0.03487 0.14794 0 0.017435 0.017436-0.017435 0.056534 0 0.073969 0.034869 0.034869 0.10383-0.022053 0.14794 0 0.031188 0.015594 0.042781 0.058375 0.073969 0.073969 0.022053 0.011028 0.056534-0.017433 0.073969 0 0.017433 0.017436-0.017436 0.056534 0 0.073969 0.017433 0.017436 0.056534-0.017436 0.073969 0 0.017433 0.017436-0.011025 0.051916 0 0.073969 0.015594 0.031188 0.058375 0.042781 0.073969 0.073969 0.011028 0.022053-0.017433 0.056534 0 0.073969 0.017436 0.017433 0.081766-0.023392 0.073969 0-0.052304 0.15691-0.14794 0.29588-0.22191 0.44381"/>
  <path d="m1.4054 3.3662v0.9616c0 0.03868-0.00972 0.27643 0 0.29588 0.015594 0.031188 0.058375 0.042781 0.073969 0.073969 0.022053 0.044107-0.034869 0.11307 0 0.14794 0.017435 0.017433 0.056534-0.017433 0.073969 0 0.017799 0.017799-0.017799 0.27808 0 0.29588 0.017435 0.017436 0.056534-0.017436 0.073969 0 0.036985 0.036985-0.036984 0.18492 0 0.22191 0.017435 0.017436 0.056534-0.017433 0.073969 0 0.034869 0.03487-0.034869 0.11307 0 0.14794 0.017435 0.017433 0.056534-0.017436 0.073969 0 0.036984 0.036984-0.036985 0.18492 0 0.22191 0.017435 0.017436 0.056534-0.017436 0.073969 0 0.017799 0.017798-0.017799 0.27808 0 0.29588 0.017435 0.017433 0.056534-0.017433 0.073969 0 0.036985 0.036984-0.036984 0.18492 0 0.22191 0.017435 0.017436 0.056534-0.017433 0.073969 0 0.036985 0.036984-0.036984 0.18492 0 0.22191 0.017435 0.017433 0.056534-0.017436 0.073969 0 0.034869 0.034869-0.022053 0.10383 0 0.14794 0.015594 0.031188 0.058375 0.042781 0.073969 0.073969 0.029588 0.059175-0.029588 0.16273 0 0.22191 0.015594 0.031188 0.058375 0.042781 0.073969 0.073969 0.00956 0.019124 0 0.39138 0 0.44381v0.073969c0 0.024657 0.024534 0.071516 0 0.073969-0.24534 0.024535-0.49313-8e-7 -0.73969-1.1e-6"/>
  <path d="m2.367 4.1059c0.745-0.16235 0.12025 0.26818 0.22191 0.36985 0.017435 0.017436 0.056534-0.017436 0.073969 0 0.03487 0.034869-0.034869 0.11307 0 0.14794 0.017436 0.017436 0.056534-0.017433 0.073969 0 0.034869 0.034869-0.03487 0.11307 0 0.14794 0.017433 0.017436 0.056534-0.017433 0.073969 0 0.017799 0.017799-0.017799 0.27808 0 0.29588 0.017433 0.017436 0.056534-0.017433 0.073969 0 0.020241 0.020241-0.020063 0.25575 0 0.29588 0.015595 0.031188 0.058375 0.042781 0.073969 0.073969 0.020063 0.040127-0.020241 0.27564 0 0.29588 0.017433 0.017436 0.056535-0.017436 0.073969 0 0.00238 0.00238 0 0.20397 0 0.22191v0.59175c0 0.03868 0.00972 0.27643 0 0.29588-0.015595 0.031188-0.058375 0.042781-0.073969 0.073969-0.022053 0.044107 0.022053 0.10383 0 0.14794-0.015595 0.031188-0.058375 0.042781-0.073969 0.073969-0.022053 0.044107 0.034869 0.11307 0 0.14794-0.017433 0.017433-0.056534-0.017436-0.073969 0-0.015121 0.015121 0.014663 0.19258 0 0.22191-0.015595 0.031188-0.058375 0.042781-0.073969 0.073969-0.022053 0.044106 0.034869 0.11307 0 0.14794-0.098625 0.098625-0.073969-0.12328-0.073969 0.073969"/>
  <path d="m1.4794 7.5825c-0.13939 0.31614-0.14794 0.41173-0.14794 0.66572 0 0.024657 0.011027 0.051916 0 0.073969-0.015594 0.031188-0.058375 0.042781-0.073969 0.073969-0.013375 0.02675 0 0.3184 0 0.36985v0.9616c0 0.052429 0.00956 0.42469 0 0.44381-0.015594 0.03119-0.058375 0.04278-0.073969 0.07397-0.011256 0.02251 0 0.1886 0 0.22191v0.59175c0 0.01794 0.00238 0.21953 0 0.22191-0.017435 0.01743-0.056534-0.01744-0.073969 0-0.017435 0.01743 0 0.04931 0 0.07397v0.07397 0.51778c0 0.02466 0.017435 0.05654 0 0.07397-0.017435 0.01744-0.056534-0.01743-0.073969 0-0.00238 0.0024 0 0.20397 0 0.22191v0.81366c0 0.03868 0.00972 0.27643 0 0.29588-0.015594 0.03119-0.058375 0.04278-0.073969 0.07397-0.011256 0.02251 0 0.18859 0 0.22191v1.4054 0.44381 0.07397c0 0.02466 0.011027 0.05192 0 0.07397-0.015594 0.03119-0.058375 0.04278-0.073969 0.07397-0.029588 0.05917 0.029588 0.16273 0 0.22191-0.015594 0.03119-0.058375 0.04278-0.073969 0.07397-0.011027 0.02205 0.011027 0.05192 0 0.07397-0.091404 0.18281-0.073969-0.02553-0.073969 0.14794"/>
  <path d="m2.7369 8.692c0.098627 2.6e-6 0.07397-0.024654 0.07397 0.073971 0 0.024656 0.017433 0.091404 0 0.073969-0.038985-0.038986-0.091405-0.20024-0.07397-0.14794 0.16025 0.48075 0.14794 0.24654 0.14794 0.59175v0.59175c0 0.024657-0.017433 0.056534 0 0.073969 0.017436 0.017433 0.056535-0.017433 0.073969 0 0.017433 0.017433 0 0.049313 0 0.073969v0.36984 0.44381c0 0.02466-0.017433 0.05654 0 0.07397s0.056535-0.01743 0.073969 0c0.017436 0.01743 0 0.04931 0 0.07397v0.07397 0.59175c0 0.03331-0.011255 0.1994 0 0.22191 0.015595 0.03119 0.058375 0.04278 0.073969 0.07397 0.011255 0.02251 0 0.1886 0 0.22191v0.44382c0 0.03331-0.011255 0.1994 0 0.22191 0.015594 0.03119 0.058375 0.04278 0.073969 0.07397 0.00956 0.01912 0 0.39138 0 0.44382v0.9616 0.9616 0.07397c0 0.02466-0.017433 0.05653 0 0.07397 0.017436 0.01743 0.056534-0.01744 0.073969 0 0.017433 0.01743 0 0.04931 0 0.07397v0.07397 0.73969"/>
  <path d="m3.2546 16.311c-0.049313-0.02466-0.092804-0.07398-0.14794-0.07398-0.024657 0 0.017433 0.05654 0 0.07397-0.017434 0.01744-0.056533-0.01743-0.073969 0-0.017433 0.01744 0.017436 0.05654 0 0.07397-0.017434 0.01743-0.056536-0.01743-0.073969 0-0.017433 0.01744 0.017433 0.05654 0 0.07397-0.017434 0.01744-0.056533-0.01743-0.073969 0-0.017433 0.01744 0.017436 0.05653 0 0.07397-0.017435 0.01743-0.056536-0.01744-0.073969 0s0.017433 0.05654 0 0.07397c-0.036984 0.03698-0.18492-0.03698-0.22191 0-0.017435 0.01744 0.017435 0.05654 0 0.07397-0.00335 0.0034-0.33497 0-0.36985 0h-0.66572-0.073969c-0.024656 0-0.056534 0.01744-0.073969 0s0.017435-0.05654 0-0.07397c-0.036985-0.03698-0.18492 0.03698-0.22191 0-0.017435-0.01743 0-0.04931 0-0.07397-0.14794-0.09862-0.29588-0.19725-0.44381-0.29587-0.073968-0.04931 0.1726 0.2219 0.22191 0.14793s-0.14794-0.09862-0.22191-0.14793c0.072301 0.22431 0.073969 0.38389 0.073969 0.59174 0 0.02466-0.011027 0.05192 0 0.07397 0.015594 0.03119 0.058375 0.04278 0.073969 0.07397 0.011027 0.02205 0 0.04931 0 0.07397v0.07397 0.36984c0 0.02466-0.011027 0.05192 0 0.07397 0.015594 0.03119 0.058375 0.04278 0.073969 0.07397 0.025546 0.05109-0.025965 0.34388 0 0.36985 0.017435 0.01743 0.056534-0.01744 0.073969 0 0.017435 0.01743 0 0.04931 0 0.07397v0.07397 0.59175c0 0.02466-0.017435 0.05654 0 0.07397 0.017435 0.01744 0.056534-0.01743 0.073969 0 0.017435 0.01744 0 0.04931 0 0.07397v0.07397 0.73969 5.3258 1.3314 0.59175 0.07397c0 0.02466 0.017435 0.05654 0 0.07397s-0.056534-0.01743-0.073969 0 0 0.04931 0 0.07397v0.59175 3.9943 1.8492 0.59175c0 0.03331-0.011256 0.1994 0 0.22191 0.015594 0.03119 0.058375 0.04278 0.073969 0.07397 0.011027 0.02205 0 0.04931 0 0.07397v0.07397 0.36984c0 0.02466-0.011027 0.05192 0 0.07397 0.015594 0.03119 0.058375 0.04278 0.073969 0.07397 0.00956 0.01913 0 0.39138 0 0.44382 0 0.02466-0.017435 0.05653 0 0.07397 0.017435 0.01743 0.056534-0.01744 0.073969 0 0.017435 0.01743 0 0.04931 0 0.07397v0.07397c0 0.05243-0.00956 0.42469 0 0.44381 0.015594 0.03119 0.058375 0.04278 0.073969 0.07397 0.011256 0.02251 0 0.1886 0 0.22191v0.51778c0 0.03868-0.00972 0.27643 0 0.29588 0.015594 0.03119 0.058375 0.04278 0.073969 0.07397 0.011027 0.02205 0 0.04931 0 0.07397v0.07397 0.44382 0.9616 0.44381c0 0.03331-0.011256 0.1994 0 0.22191 0.015594 0.03119 0.058375 0.04278 0.073969 0.07397 0.00956 0.01912 0 0.39138 0 0.44382v1.1095 0.88763 0.07397c0 0.02466-0.017435 0.05654 0 0.07397 0.017435 0.01744 0.056534-0.01743 0.073969 0 0.017435 0.01744 0 0.04931 0 0.07397v0.07397 0.59175 1.9972 0.59175c0 0.03331-0.011256 0.1994 0 0.22191 0.015594 0.03119 0.058375 0.04278 0.073969 0.07397 0.011256 0.02251 0 0.1886 0 0.22191v0.59175 1.4054 0.88763 0.07397c0 0.02466-0.017435 0.05653 0 0.07397 0.034869 0.03487 0.11307-0.03487 0.14794 0 0.017435 0.01744-0.017435 0.05654 0 0.07397 0.00238 0.0024 0.20397 0 0.22191 0h0.36985c0.024656 0 0.056534 0.01743 0.073969 0s-0.017435-0.05653 0-0.07397c0.017435-0.01743 0.056534 0.01744 0.073969 0 0.017435-0.01743-0.017435-0.05653 0-0.07397 0.017435-0.01743 0.056534 0.01743 0.073969 0s-0.017435-0.05653 0-0.07397c0.017435-0.01743 0.056534 0.01743 0.073969 0 0.022904-0.0229-0.022904-0.34694 0-0.36984 0.017435-0.01743 0.056534 0.01743 0.073969 0 0.00238-0.0024 0-0.20397 0-0.22191 2.04e-5 -6.0901 7e-7 -12.18 7e-7 -18.27v-2.367-0.88763-0.07397c0-0.02466-0.017435-0.05653 0-0.07397 0.017435-0.01743 0.056534 0.01743 0.073969 0 0.00298-3e-3 0-0.26871 0-0.29588v-1.7013-2.8108-0.9616c0-0.05243-0.00956-0.42469 0-0.44381 0.015594-0.03119 0.058375-0.04278 0.073969-0.07397 0.013375-0.02675 0-0.3184 0-0.36984v-0.66572c0-0.03868-0.00972-0.27643 0-0.29588 0.015594-0.03119 0.058375-0.04278 0.073969-0.07397 0.011027-0.02205 0-0.04931 0-0.07397v-0.07397-0.44382-0.36984-0.07397c0-0.02466-0.011027-0.05192 0-0.07397 0.015594-0.03119 0.058375-0.04278 0.073969-0.07397 0.00972-0.01945 0-0.2572 0-0.29588v-0.59175c0-0.04426-0.013604-0.18563 0-0.22191 0.065933-0.17582 0.14794-0.34518 0.22191-0.51778z"/>
  <path d="m1.1835 16.533v0.51778c0.024656 0 0.056534-0.01743 0.073969 0 0.098625 0.09863-0.12328 0.07397 0.073969 0.07397h0.073969c0.024656 0 0.056534-0.01743 0.073969 0 0.017435 0.01744-0.017435 0.05653 0 0.07397 0.00238 0.0024 0.20397 0 0.22191 0 0.027164 0 0.2929-3e-3 0.29588 0 0.017435 0.01743-0.017435 0.05653 0 0.07397 0.017435 0.01743 0.049313 0 0.073969 0h0.073969 0.36985c0.024656 0 0.056534 0.01743 0.073969 0s-0.017435-0.05653 0-0.07397 0.056534 0.01743 0.073969 0c0.017436-0.01744-0.017435-0.05654 0-0.07397 0.03487-0.03487 0.11307 0.03487 0.14794 0 0.017433-0.01743-0.017433-0.05654 0-0.07397s0.049313 0 0.073969 0h0.073969"/>
  <path d="m2.441 14.979v0.9616"/>
 </g>
 <g>
  <path transform="scale(.26458)" d="m9.1126 28.602c-0.069172-0.21792-0.19131-1.0881-0.27141-1.9338-0.080105-0.84569-0.78247-3.4543-1.5608-5.797-1.1612-3.495-1.4152-4.6113-1.4152-6.2204 0-1.7747-0.05314-1.9611-0.55914-1.9611-0.51723 0-0.55914 0.18638-0.55914 2.4867 0 2.26 0.14017 2.9137 1.5376 7.171 0.84569 2.5764 1.5376 4.917 1.5376 5.2014 0 0.378-0.20723 0.51714-0.77024 0.51714-0.68695 0-0.84271-0.18893-1.4405-1.7473-0.36863-0.96102-1.0402-2.4392-1.4924-3.2849-0.4522-0.84569-1.12-2.4641-1.4841-3.5966-0.58411-1.817-0.63198-2.2933-0.40741-4.0537 0.3053-2.3932 1.0842-4.9979 2.5501-8.5273 0.59815-1.4402 1.0875-2.7926 1.0875-3.0054 0-0.9266 0.53226-0.19012 1.8924 2.6185 0.80049 1.6529 2.2942 4.2634 3.3194 5.801 2.0524 3.0782 2.7738 4.6783 3.0508 6.7668 0.15688 1.1826 0.01544 1.8664-0.97266 4.7022-0.63593 1.8251-1.1881 3.3502-1.2271 3.3892-0.03897 0.03897-0.02539-1.1495 0.03017-2.641 0.0789-2.1177-0.03207-3.2324-0.50652-5.0881-0.33415-1.307-0.59359-2.8339-0.57652-3.3931 0.0346-1.1341-0.40919-1.4724-1.5543-1.185-0.50377 0.12644-0.64178 0.29838-0.5047 0.62878 0.10377 0.25011 0.28031 0.83513 0.39231 1.3 0.11199 0.4649 0.33404 1.0939 0.49344 1.3978 0.45539 0.86825 1.1955 4.4523 1.1955 5.7894 0 1.1805-0.91319 4.2899-1.411 4.8044-0.14884 0.15385-0.29838 0.09794-0.37384-0.13978z" fill="#333" opacity=".99"/>
  <path transform="scale(.26458)" d="m5.3118 62.155c-1.2982-0.54537-1.6493-1.0527-1.4031-2.0274 0.12366-0.48964 0.29801-3.6141 0.38745-6.9433 0.089432-3.3292 0.29088-7.2291 0.44765-8.6666 0.15678-1.4375 0.39601-5.1625 0.53163-8.2778 0.16345-3.7545 0.36311-5.8046 0.59219-6.0806 0.45531-0.54862 1.8542-0.50741 3.0728 0.09052 0.92926 0.45594 0.98093 0.55723 1.027 2.0134 0.026668 0.84334 0.35914 5.2446 0.73882 9.7806 0.37968 4.536 0.74507 10.592 0.81197 13.458l0.12164 5.2104-0.99622 0.7949c-0.83102 0.66308-1.2982 0.80688-2.8174 0.86712-1.0017 0.03972-2.1331-0.05882-2.5144-0.21898zm4.4673-3.6166c0-1.7706-0.053251-1.957-0.55914-1.957s-0.55914 0.18638-0.55914 1.957c0 1.7706 0.053251 1.957 0.55914 1.957 0.50589 0 0.55914-0.18638 0.55914-1.957z" fill="#ccc" opacity=".99"/>
  <path transform="scale(.26458)" d="m7.0984 185.53c-0.20731-0.13986-0.4109-5.4682-0.63808-16.7-0.45385-22.438-0.77076-30.199-1.4551-35.637-0.56693-4.5052-0.57669-5.3247-0.39127-32.857 0.18239-27.083 0.10906-31.263-0.60704-34.602-0.15923-0.74253-0.13498-0.76287 0.58394-0.48954 0.41254 0.15685 1.8081 0.3665 3.1012 0.4659 1.8018 0.1385 2.4601 0.09033 2.8173-0.20617 0.43051-0.3573 0.45248-0.22673 0.28714 1.7067-0.67826 7.931-0.8099 16.697-0.97669 65.037-0.1757 50.923-0.19474 52.336-0.71309 52.908-0.53403 0.58995-1.4389 0.75862-2.0084 0.37438z" fill="#800000" opacity=".99"/>
  <path transform="scale(.26458)" d="m6.8754 64.395c-2.4835-0.41624-2.1924-0.82353 0.58845-0.82353 1.402 0 2.7482-0.07636 2.9914-0.1697 0.24322-0.09333 0.43897-0.06188 0.435 0.06989-0.0079 0.26244-1.976 1.2381-2.3908 1.1852-0.14183-0.01808-0.87264-0.13592-1.624-0.26186z" fill="#800000" opacity=".99"/>
 </g>
</svg>
