<svg width="4.1781mm" height="49.375mm" version="1.1" viewBox="0 0 4.1781 49.375" xmlns="http://www.w3.org/2000/svg">
 <g transform="matrix(1 0 0 .99651 0 .17156)">
  <g fill="none" stroke="#000" stroke-width=".26458px">
   <path d="m0.91754 6.4801c0.076461-0.076462 0.15292-0.15292 0.22938-0.22938 0.019115 0 0.04383 0.013517 0.057346 0 0.013516-0.013518 0-0.038231 0-0.057346 0.019115 0 0.043829 0.013518 0.057346 0 0.013516-0.013517-0.013516-0.04383 0-0.057346 0.027033-0.027033 0.087659 0.027033 0.11469 0 0.013517-0.013518-0.013516-0.043829 0-0.057346 0.027033-0.027033 0.080498 0.017097 0.11469 0 0.024179-0.012089 0.033167-0.045256 0.057346-0.057346 0.034195-0.017097 0.080498 0.017097 0.11469 0 0.024179-0.012089 0.033167-0.045256 0.057346-0.057346 0.022737-0.011369 0.16031 0.011724 0.17204 0 0.013516-0.013517-0.013516-0.043829 0-0.057346 0.013516-0.013518 0.038231 0 0.057346 0h0.057346 0.45877 0.34408c0.019116 0 0.04383-0.013518 0.057346 0 0.013518 0.013517-0.013517 0.043829 0 0.057346 0.013518 0.013518 0.04383-0.013517 0.057346 0 0.013517 0.013518-0.013518 0.04383 0 0.057346 0.013517 0.013517 0.040249-0.00855 0.057346 0 0.02418 0.012089 0.033167 0.045256 0.057346 0.057346 0.017097 0.00855 0.043829-0.013517 0.057346 0 0.013518 0.013518-0.013518 0.04383 0 0.057346 0.013518 0.013518 0.04383-0.013518 0.057346 0 0.013517 0.013518-0.00855 0.040249 0 0.057346 0.012089 0.02418 0.045256 0.033167 0.057346 0.057346 0.00855 0.017097-0.013517 0.04383 0 0.057346 0.076461 0.076461 0.057346-0.095577 0.057346 0.057346"/>
   <path d="m1.1469 6.2507c-0.057346 0.038231-0.1233 0.065957-0.17204 0.11469-0.002307 0.0023 0 0.20832 0 0.22938 0 0.019116-0.013516 0.04383 0 0.057346 0.013516 0.013518 0.04383-0.013517 0.057346 0 0.00184 0.00185 0 0.15813 0 0.17204v0.91754 0.40142c0 0.025826 0.00873 0.15459 0 0.17204-0.01209 0.02418-0.045256 0.033167-0.057346 0.057346-0.010369 0.020738 0 0.24684 0 0.28673 0 0.019116 0.013516 0.04383 0 0.057346-0.013516 0.013518-0.04383-0.013518-0.057346 0-0.013516 0.013518 0 0.038231 0 0.057346v0.057346c0 0.040647 0.007413 0.32925 0 0.34408-0.01209 0.02418-0.045256 0.033167-0.057346 0.057346-0.008726 0.017452 0 0.14621 0 0.17204v0.45877c0 0.013909 0.001844 0.17019 0 0.17204-0.013516 0.01352-0.04383-0.01352-0.057346 0-0.002307 0.0023 0 0.20832 0 0.22938v0.63081c0 0.02999 0.007539 0.2143 0 0.22938-0.01209 0.02418-0.045256 0.03317-0.057346 0.05735-0.022938 0.04588 0.022938 0.12616 0 0.17204-0.01209 0.02418-0.045256 0.03317-0.057346 0.05735-0.018089 0.03618 0.018089 0.25055 0 0.28673-0.01209 0.02418-0.045256 0.03317-0.057346 0.05735-0.007539 0.01508 0 0.1994 0 0.22938v0.34408c0 0.02583 0.008726 0.15459 0 0.17204-0.01209 0.02418-0.045256 0.03317-0.057346 0.05735-0.008726 0.01745 0 0.14621 0 0.17204v0.40142c0 0.01391 0.001844 0.17019 0 0.17204-0.013516 0.01352-0.04383-0.01352-0.057346 0-0.013516 0.01352 0 0.03823 0 0.05735v0.05735 0.68815 0.80284 0.05735c0 0.01912 0.013516 0.04383 0 0.05735s-0.04383-0.01352-0.057346 0c-0.013516 0.01352 0.013516 0.04383 0 0.05735s-0.04383-0.01352-0.057346 0c-0.027033 0.02703 0.027033 0.08766 0 0.11469-0.013516 0.01352-0.04383-0.01352-0.057346 0-0.027033 0.02703 0.027033 0.08766 0 0.11469-0.013516 0.01352-0.04383-0.01352-0.057346 0-0.013516 0.01352 0 0.03823 0 0.05735 0 0.02106-0.002307 0.22708 0 0.22938 0.013516 0.01352 0.04383-0.01352 0.057346 0 0.013516 0.01352-0.008549 0.04025 0 0.05735 0.01209 0.02418 0.045256 0.03317 0.057346 0.05735 0.008549 0.0171-0.013516 0.04383 0 0.05735s0.04383-0.01352 0.057346 0c0.013516 0.01352-0.008549 0.04025 0 0.05735 0.024179 0.04836 0.090513 0.06633 0.11469 0.11469 0.008549 0.0171-0.013516 0.04383 0 0.05735s0.04383-0.01352 0.057346 0c0.013516 0.01352-0.013516 0.04383 0 0.05735s0.04383-0.01352 0.057346 0c0.013516 0.01352-0.013516 0.04383 0 0.05735s0.040249-0.0085 0.057346 0c0.024179 0.01209 0.033167 0.04526 0.057346 0.05735 0.017097 0.0085 0.04383-0.01352 0.057346 0 0.013516 0.01352-0.013516 0.04383 0 0.05735s0.040249-0.0085 0.057346 0c0.024179 0.01209 0.033167 0.04526 0.057346 0.05735 0.017097 0.0085 0.040249-0.0085 0.057346 0 0.024179 0.01209 0.033167 0.04526 0.057346 0.05735 0.017097 0.0085 0.043829-0.01352 0.057346 0s-0.013516 0.04383 0 0.05735c0.027033 0.02703 0.087659-0.02703 0.11469 0 0.013516 0.01352-0.013516 0.04383 0 0.05735 0.028673 0.02867 0.14337-0.02867 0.17204 0 0.013517 0.01352-0.013516 0.04383 0 0.05735 0.00184 0.0019 0.15813 0 0.17204 0h1.0322 0.34408 0.057346c0.019116 0 0.040249 0.0085 0.057346 0 0.02418-0.01209 0.033167-0.04526 0.057346-0.05735 0.034194-0.0171 0.087659 0.02703 0.11469 0 0.013517-0.01352-0.013518-0.04383 0-0.05735 0.027033-0.02703 0.087659 0.02703 0.11469 0 0.013517-0.01352-0.013518-0.04383 0-0.05735 0.027033-0.02703 0.087659 0.02703 0.11469 0 0.013518-0.01352-0.013518-0.04383 0-0.05735 0.027033-0.02703 0.087659 0.02703 0.11469 0 0.013518-0.01352-0.013517-0.04383 0-0.05735 0.013518-0.01352 0.043829 0.01352 0.057346 0 0.013518-0.01352-0.013518-0.04383 0-0.05735s0.043829 0.01352 0.057346 0c0.013518-0.01352-0.013517-0.04383 0-0.05735 0.013518-0.01352 0.040249 0.0085 0.057346 0 0.048358-0.02418 0.066334-0.09051 0.11469-0.11469 0.017097-0.0085 0.043829 0.01352 0.057346 0 0.013518-0.01352-0.013518-0.04383 0-0.05735s0.04383 0.01352 0.057346 0c0.076461-0.07646-0.095577-0.05735 0.057346-0.05735"/>
   <path d="m3.2687 6.3654c1.5e-6 0.21027 1.3e-6 0.42054 1.3e-6 0.63081v0.057346c0 0.019116-0.013518 0.043829 0 0.057346 0.013517 0.013518 0.043829-0.013518 0.057346 0 0.013798 0.013798-0.013801 0.21559 0 0.22938 0.013518 0.013517 0.043829-0.013518 0.057346 0 0.013517 0.013517 0 0.038231 0 0.057346v0.057346 0.28673 0.057346c0 0.019116-0.00855 0.040249 0 0.057346 0.012089 0.02418 0.045256 0.033167 0.057346 0.057346 0.00754 0.015079 0 0.1994 0 0.22938v1.2043c0 0.021058-0.0023 0.22708 0 0.22938 0.013518 0.013518 0.04383-0.013518 0.057346 0 0.015692 0.015692-0.015555 0.19828 0 0.22938 0.012089 0.02418 0.045256 0.033167 0.057346 0.057346 0.00873 0.017452 0 0.14621 0 0.17204v0.40142 0.05735c0 0.01912-0.013518 0.04383 0 0.05735s0.04383-0.01352 0.057346 0c0.00259 0.0026 0 0.25969 0 0.28673v0.97488 0.28673 0.05735c0 0.01912-0.00855 0.04025 0 0.05735 0.012089 0.02418 0.045256 0.03317 0.057346 0.05735 0.00873 0.01745 0 0.14621 0 0.17204v0.45877c0 0.01391-0.00185 0.17019 0 0.17204 0.076461 0.07646 0.057346-0.09558 0.057346 0.05735v0.34408 0.05735c0 0.01912-0.00855 0.04025 0 0.05735 0.012089 0.02418 0.045256 0.03317 0.057346 0.05735 0.017097 0.03419-0.027033 0.08766 0 0.11469 0.013518 0.01352 0.04383-0.01352 0.057346 0 0.017756 0.01776-0.017756 0.26897 0 0.28673 0.013517 0.01352 0.04383-0.01352 0.057346 0 0.02013 0.02013-0.019807 0.24712 0 0.28673 0.012089 0.02418 0.045256 0.03317 0.057346 0.05735 0.00754 0.01508 0 0.1994 0 0.22938 0 0.02106-0.0023 0.22708 0 0.22938 0.013518 0.01352 0.04383-0.01352 0.057346 0 0.013518 0.01352 0 0.03823 0 0.05735v0.28673c0 0.01912-0.013518 0.04383 0 0.05735s0.04383-0.01352 0.057346 0c0.015693 0.01569-0.015555 0.19828 0 0.22938 0.012089 0.02418 0.045256 0.03317 0.057346 0.05735 0.010369 0.02074 0 0.24684 0 0.28673 0 0.01912 0.01351 0.04382 0 0.05735-0.01351 0.01352-0.038232 3.8e-5 -0.057347 5.7e-5"/>
   <path d="m0.31744 15.527c0.019115 0.07646-0.17467 0.39951-0.1454 0.47268 0.01004 0.0251 0.045256 0.03317 0.057346 0.05735 0.010369 0.02074 0 0.24684 0 0.28673 0 0.01912-0.013517 0.04383 0 0.05735 0.076462 0.07646 0.057346-0.09558 0.057346 0.05735 0 0.02106-0.002307 0.22708 0 0.22938 0.013516 0.01352 0.04383-0.01352 0.057346 0 0.013516 0.01352-0.008549 0.04025 0 0.05735 0.01209 0.02418 0.038231 0.03823 0.057346 0.05735s0.033167 0.04526 0.057346 0.05735c0.017097 0.0085 0.04383-0.01352 0.057346 0 0.013516 0.01352-0.013516 0.04383 0 0.05735 0.027033 0.02703 0.087659-0.02703 0.11469 0 0.013516 0.01352-0.013516 0.04383 0 0.05735 0.027033 0.02703 0.087659-0.02703 0.11469 0 0.013516 0.01352-0.013516 0.04383 0 0.05735s0.040249-0.0085 0.057346 0c0.024179 0.01209 0.033167 0.04526 0.057346 0.05735 0.034195 0.0171 0.087659-0.02703 0.11469 0 0.013516 0.01352-0.013516 0.04383 0 0.05735 0.028673 0.02867 0.14337-0.02867 0.17204 0 0.013517 0.01352-0.013516 0.04383 0 0.05735 0.013799 0.0138 0.21559-0.0138 0.22938 0 0.013517 0.01352-0.013516 0.04383 0 0.05735 0.013517 0.01352 0.038231 0 0.057346 0h1.491c0.019116 0 0.04383 0.01352 0.057346 0 0.013518-0.01352-0.013517-0.04383 0-0.05735 0.013518-0.01352 0.04383 0.01352 0.057346 0 0.013517-0.01352-0.013518-0.04383 0-0.05735 0.028673-0.02867 0.14337 0.02867 0.17204 0 0.013518-0.01352-0.013517-0.04383 0-0.05735 0.028673-0.02867 0.14337 0.02867 0.17204 0 0.013517-0.01352-0.013518-0.04383 0-0.05735 0.039687-0.03969 0.075005 0.03969 0.11469 0 0.013518-0.01352-0.013518-0.04383 0-0.05735 0.027033-0.02703 0.087659 0.02703 0.11469 0 0.013518-0.01352-0.013517-0.04383 0-0.05735 0.028673-0.02867 0.14337 0.02867 0.17204 0 0.013518-0.01352-0.013518-0.04383 0-0.05735 0.027033-0.02703 0.087659 0.02703 0.11469 0 0.027033-0.02703-0.027033-0.08766 0-0.11469 0.013518-0.01352 0.040249 0.0085 0.057346 0 0.02418-0.01209 0.033167-0.04526 0.057346-0.05735 0.017097-0.0085 0.04383 0.01352 0.057346 0 0.013518-0.01352 0-0.03823 0-0.05735v-0.05735c0-0.22935 8.2e-6 -0.4587-2.6e-6 -0.68804"/>
   <path d="m0.28673 16.802v0.22938c0.019115 0 0.04383-0.01352 0.057346 0 0.027033 0.02703-0.017097 0.0805 0 0.11469 0.01209 0.02418 0.045256 0.03317 0.057346 0.05735 0.011369 0.02274-0.011724 0.16031 0 0.17204 0.013516 0.01352 0.04383-0.01352 0.057346 0 0.013516 0.01352 0 0.03823 0 0.05735v0.34408c0 0.01912-0.013516 0.04383 0 0.05735s0.04383-0.01352 0.057346 0c0.013516 0.01352 0 0.03823 0 0.05735 0 0.02704-0.002598 0.28413 0 0.28673 0.013516 0.01352 0.04383-0.01352 0.057346 0 0.002598 0.0026 0 0.25969 0 0.28673 0 0.01912-0.013516 0.04383 0 0.05735s0.04383-0.01352 0.057346 0c0.013516 0.01352 0 0.03823 0 0.05735v0.05735 0.45877c0 0.02583-0.008726 0.15459 0 0.17204 0.070863 0.14173 0.057346-0.01979 0.057346 0.11469v0.68815 0.05735c0 0.01912-0.013516 0.04383 0 0.05735s0.04383-0.01352 0.057346 0c0.013516 0.01352 0 0.03823 0 0.05735 0 0.04065-0.007413 0.32925 0 0.34408 0.01209 0.02418 0.045256 0.03317 0.057346 0.05735 0.007539 0.01508 0 0.1994 0 0.22938 0 0.02704-0.002598 0.28413 0 0.28673 0.013516 0.01352 0.04383-0.01352 0.057346 0 0.013516 0.01352 0 0.03823 0 0.05735v0.05735 0.34408 0.05735c0 0.01912-0.008549 0.04025 0 0.05735 0.01209 0.02418 0.045256 0.03317 0.057346 0.05735 0.010369 0.02074 0 0.24684 0 0.28673v0.7455 0.51612c0 0.02999-0.007539 0.21431 0 0.22938 0.01209 0.02418 0.045256 0.03317 0.057346 0.05735 0.008726 0.01745 0 0.14621 0 0.17204v0.40142 1.3763 1.663 0.51611c0 0.02999-0.007539 0.21431 0 0.22939 0.01209 0.02418 0.045256 0.03317 0.057346 0.05735 0.00754 0.01508 0 0.1994 0 0.22938v0.51612 1.319 0.63081 0.05735c0 0.0191-0.013517 0.04383 0 0.05735 0.013516 0.01352 0.043829-0.01352 0.057346 0 0.038253 0.03825-0.038253 0.07644 0 0.11469 0.013517 0.01352 0.043829-0.01352 0.057346 0 0.00231 0.0024 0 0.20832 0 0.22938v2.0645 0.63081c0 0.03989-0.010369 0.26599 0 0.28673 0.01209 0.02418 0.045256 0.03316 0.057346 0.05735 0.00855 0.01709 0 0.03823 0 0.05735 0 0.04065-0.00741 0.32925 0 0.34408 0.01209 0.02418 0.045257 0.03317 0.057346 0.05735 0.00873 0.01746 0 0.14621 0 0.17204v0.34408c0 0.02999-0.00754 0.2143 0 0.22938 0.01209 0.02418 0.045257 0.03317 0.057346 0.05734 0.00855 0.01709 0 0.03823 0 0.05735v0.05735 0.28673 0.45877 0.05734c0 0.0191-0.013516 0.04383 0 0.05735s0.043829-0.01352 0.057346 0c0.00184 0.0019 0 0.15813 0 0.17204v0.45877c0 0.02998-0.00754 0.2143 0 0.22938 0.01209 0.02418 0.045257 0.03317 0.057346 0.05735 0.00873 0.01746 0 0.14621 0 0.17204v0.40142c0 0.02999-0.00754 0.21431 0 0.22938 0.01209 0.02418 0.045257 0.03317 0.057346 0.05735 0.00754 0.01508 0 0.1994 0 0.22939v0.51612c0 0.03989-0.010369 0.26599 0 0.28673 0.01209 0.02418 0.045257 0.03317 0.057346 0.05735 0.010369 0.02074 0 0.24684 0 0.28673v0.63081c0 0.01392-0.00184 0.1702 0 0.17204 0.013516 0.01352 0.043829-0.01352 0.057346 0 0.00231 0.0024 0 0.20832 0 0.22938v0.51611c0 0.02999-0.00754 0.21431 0 0.22939 0.070863 0.14172 0.057346-0.01979 0.057346 0.11469v0.63081c0 0.0396-0.00872 0.21195 0 0.22939 0.01209 0.02418 0.045257 0.03317 0.057346 0.05735 0.00855 0.01709 0 0.03823 0 0.05735v0.05734 0.34408 1.0896 1.663 0.45877c0 0.02999-0.00754 0.21431 0 0.22939 0.01209 0.02418 0.045256 0.03316 0.057346 0.05735 0.00754 0.01508 0 0.1994 0 0.22938v0.57346 0.34408c0 0.0191-0.013516 0.04383 0 0.05735 0.013517 0.01352 0.04383-0.01352 0.057346 0s0 0.03823 0 0.05735v0.05735 0.45877 0.05734c0 0.0191-0.013517 0.04383 0 0.05735 0.013516 0.01352 0.043829-0.01352 0.057346 0 0.013516 0.01352 0 0.03823 0 0.05735v0.34408c0 0.0191-0.013516 0.04383 0 0.05735s0.043829-0.01352 0.057346 0c0.013799 0.01381-0.013799 0.21558 0 0.22938 0.013516 0.01352 0.038231 0 0.057346 0 0 0.0191-0.013516 0.04383 0 0.05735 0.027033 0.02703 0.087659-0.02703 0.11469 0 0.013517 0.01352-0.013516 0.04383 0 0.05735 0.013517 0.01352 0.04383-0.01352 0.057346 0 0.013517 0.01352-0.013517 0.04383 0 0.05734 0.013517 0.01352 0.040249-0.0085 0.057346 0 0.024179 0.01209 0.033167 0.04526 0.057346 0.05735 0.017453 0.0087 0.14621 0 0.17204 0 0.019115 0 0.04383 0.01352 0.057346 0 0.013517-0.01352-0.013517-0.04383 0-0.05735s0.043829 0.01352 0.057346 0-0.013516-0.04383 0-0.05734c0.013517-0.01352 0.04383 0.01352 0.057346 0 0.013517-0.01352-0.013517-0.04383 0-0.05735s0.04383 0.01352 0.057346 0c0.013518-0.01352-0.013518-0.04383 0-0.05735 0.056571-0.05657 0.11469 0.11751 0.11469-0.05734"/>
   <path d="m4.0142 16.802c0 0.07646 0.018545 0.15521 0 0.22938-0.00464 0.01854-0.04383-0.01352-0.057346 0-0.027033 0.02703 0.017097 0.0805 0 0.11469-0.012089 0.02418-0.045256 0.03317-0.057346 0.05735-0.017097 0.03419 0.027033 0.08766 0 0.11469-0.013518 0.01352-0.04383-0.01352-0.057346 0-0.017756 0.01776 0.017756 0.26897 0 0.28673-0.013518 0.01352-0.043829-0.01352-0.057346 0-0.013518 0.01352 0 0.03823 0 0.05735v0.28673c0 0.15292 0.019116-0.01912-0.057346 0.05735-0.00259 0.0026 0 0.25969 0 0.28673 0 0.01912 0.013518 0.04383 0 0.05735-0.013517 0.01352-0.04383-0.01352-0.057346 0-0.013518 0.01352 0 0.03823 0 0.05735 0 0.02704 0.00259 0.28413 0 0.28673-0.013518 0.01352-0.04383-0.01352-0.057346 0-0.013517 0.01352 0 0.03823 0 0.05735v0.05735 0.63081 0.40142c0 0.01912 0.013518 0.04383 0 0.05735-0.013517 0.01352-0.04383-0.01352-0.057346 0-0.013518 0.01352 0 0.03823 0 0.05735v0.05735 0.28673 0.05735c0 0.01912 0.00855 0.04025 0 0.05735-0.012089 0.02418-0.045256 0.03317-0.057346 0.05735-0.00741 0.01483 0 0.30343 0 0.34408 0 0.01912 0.013518 0.04383 0 0.05735s-0.04383-0.01352-0.057346 0c-0.013518 0.01352 0 0.03823 0 0.05735v0.05735 0.51612 0.05735c0 0.01912 0.013518 0.04383 0 0.05735s-0.04383-0.01352-0.057346 0c-0.00259 0.0026 0 0.25969 0 0.28673v0.40142c0 0.01912 0.013517 0.04383 0 0.05735-0.013518 0.01352-0.04383-0.01352-0.057346 0-0.0023 0.0023 0 0.20832 0 0.22938v0.63081c0 0.02999 0.00754 0.21431 0 0.22938-0.012089 0.02418-0.045257 0.03317-0.057346 0.05735-0.010369 0.02074 0 0.24684 0 0.28673v0.63081 1.8351 0.45877c0 0.02999 0.00754 0.2143 0 0.22938-0.012089 0.02418-0.045257 0.03317-0.057346 0.05735-0.00873 0.01746 0 0.14621 0 0.17204v0.40142 0.7455c0 0.03989 0.010369 0.26599 0 0.28673-0.012089 0.02418-0.045256 0.03317-0.057346 0.05735-0.010369 0.02074 0 0.24684 0 0.28673v1.2043c0 0.02106 0.0023 0.22708 0 0.22939-0.013518 0.01352-0.04383-0.01352-0.057346 0-0.00185 0.0019 0 0.15813 0 0.17204v1.2043 8.4299 5.5052 0.80284c0 0.04065 0.00741 0.32925 0 0.34408-0.012089 0.02418-0.045256 0.03317-0.057346 0.05735-0.00855 0.01709 0.00855 0.04025 0 0.05735-0.012089 0.02418-0.045257 0.03317-0.057346 0.05735-0.010369 0.02074 0 0.24685 0 0.28673v0.63081c0 0.15292 0.019116-0.0191-0.057346 0.05735-0.013518 0.01352 0 0.03823 0 0.05735v0.05735 0.57346 0.05735c0 0.0191 0.013517 0.04383 0 0.05735-0.027033 0.02703-0.087659-0.02703-0.11469 0-0.027033 0.02703 0.027033 0.08766 0 0.11469-0.013518 0.01352-0.04383-0.01352-0.057346 0-0.013518 0.01352 0.013518 0.04383 0 0.05734-0.013518 0.01352-0.070877 0.01349-0.057346 0 0.030243-0.03017 0.07646-0.03815 0.11469-0.05722"/>
   <path d="m1.7777 47.827c0.019115 0.07646 0.022099 0.15889 0.057346 0.22939 0.00855 0.01709 0.043829-0.01352 0.057346 0 0.013516 0.01352-0.013516 0.04383 0 0.05735 0.027033 0.02703 0.087659-0.02703 0.11469 0 0.013517 0.01352-0.013516 0.04383 0 0.05735 0.028673 0.02867 0.14337-0.02867 0.17204 0 0.013517 0.01352-0.013517 0.04383 0 0.05734 0.013517 0.01352 0.038231 0 0.057346 0h0.34408c0.02106 0 0.22708 0.0024 0.22938 0 0.013518-0.01352 0-0.03823 0-0.05734v-0.05735"/>
   <path d="m1.2043 6.1934c0.038231-0.15292 0.080498-0.30489 0.11469-0.45877 0.033387-0.15024-0.057346 0.063335-0.057346-0.11469v-0.40142c0-0.019116 0.013516-0.04383 0-0.057346-0.013516-0.013518-0.043829 0.013518-0.057346 0-0.028673-0.028673 0.028673-0.14337 0-0.17204-0.013517-0.013517-0.043829 0.013518-0.057346 0-0.027033-0.027033 0.027033-0.087659 0-0.11469-0.013516-0.013517-0.043829 0.013518-0.057346 0-0.028673-0.028673 0.028673-0.14337 0-0.17204-0.013516-0.013518-0.043829 0.013517-0.057346 0-0.027033-0.027033 0.027033-0.087659 0-0.11469-0.013517-0.013518-0.04383 0.013517-0.057346 0-0.027033-0.027033 0.027033-0.087659 0-0.11469-0.013516-0.013518-0.04383 0.013517-0.057346 0-0.028673-0.028673 0.028673-0.14337 0-0.17204-0.013516-0.013517-0.04383 0.013518-0.057346 0-0.027033-0.027033 0.027033-0.087659 0-0.11469-0.013516-0.013517-0.04383 0.013518-0.057346 0-0.027033-0.027033 0.027033-0.087659 0-0.11469-0.013516-0.013517-0.04383 0.013518-0.057346 0-0.027033-0.027033 0.017097-0.080498 0-0.11469-0.01209-0.02418-0.045256-0.033167-0.057346-0.057346-0.017097-0.034195 0.027033-0.087659 0-0.11469-0.013516-0.013518-0.04383 0.013518-0.057346 0-0.013516-0.013518 0.013516-0.043829 0-0.057346s-0.04383 0.013518-0.057346 0c-0.027033-0.027033 0.027033-0.087659 0-0.11469-0.013516-0.013517-0.04383 0.013518-0.057346 0-0.013516-0.013517 0.013516-0.04383 0-0.057346-0.013516-0.013518-0.04383 0.013518-0.057346 0-0.013516-0.013518-0.013516-0.043829 0-0.057346 0.013516-0.013518 0.04383 0.013518 0.057346 0 0.013516-0.013518-0.008549-0.040249 0-0.057346 0.024179-0.048358 0.090513-0.066334 0.11469-0.11469 0.008549-0.017097-0.013516-0.04383 0-0.057346 0.013516-0.013518 0.04383 0.013517 0.057346 0 0.013516-0.013518-0.008549-0.040249 0-0.057346 0.01209-0.02418 0.045256-0.033167 0.057346-0.057346 0.008549-0.017097-0.013516-0.04383 0-0.057346 0.013516-0.013518 0.04383 0.013518 0.057346 0 0.013516-0.013518-0.013516-0.043829 0-0.057346 0.013516-0.013518 0.04383 0.013517 0.057346 0 0.013516-0.013518-0.013516-0.04383 0-0.057346 0.013516-0.013517 0.04383 0.013518 0.057346 0 0.013516-0.013517-0.013516-0.043829 0-0.057346 0.013516-0.013518 0.04383 0.013517 0.057346 0 0.027033-0.027033-0.027033-0.087659 0-0.11469 0.013516-0.013518 0.04383 0.013518 0.057346 0 0.013516-0.013518-0.013517-0.04383 0-0.057346 0.013516-0.013518 0.043829 0.013518 0.057346 0 0.027033-0.027033-0.027033-0.087659 0-0.11469 0.013517-0.013517 0.043829 0.013517 0.057346 0 0.027033-0.027033-0.027033-0.087659 0-0.11469 0.013517-0.013517 0.04383 0.013517 0.057346 0 0.027033-0.027033-0.027033-0.087659 0-0.11469 0.013516-0.013517 0.043829 0.013516 0.057346 0 0.027033-0.027033-0.027033-0.087659 0-0.11469 0.013516-0.013517 0.043829 0.013517 0.057346 0 0.027033-0.027033-0.027033-0.087659 0-0.11469 0.013516-0.013517 0.043829 0.013517 0.057346 0 0.027033-0.027033-0.027033-0.087659 0-0.11469 0.013517-0.013517 0.043829 0.013516 0.057346 0 0.027033-0.027033-0.027033-0.087659 0-0.11469 0.013517-0.013516 0.04383 0.013516 0.057346 0s-0.00855-0.040249 0-0.057346c0.01209-0.024179 0.045257-0.033167 0.057346-0.057346 0.00855-0.017097-0.00855-0.040249 0-0.057346 0.01209-0.024179 0.045257-0.033167 0.057346-0.057346 0.017097-0.034195-0.027033-0.087659 0-0.11469 0.013516-0.013516 0.043829 0.013516 0.057346 0 0.027033-0.027033-0.027033-0.087659 0-0.11469 0.013517-0.013517 0.043829 0.013516 0.057346 0 0.028673-0.028673-0.028673-0.14337 0-0.17204 0.013517-0.013516 0.043829 0.013516 0.057346 0 0.027033-0.027033-0.017097-0.080498 0-0.11469 0.01209-0.024179 0.045256-0.033167 0.057346-0.057346 0.017097-0.034195-0.027033-0.087659 0-0.11469 0.013516-0.013517 0.043829 0.013516 0.057346 0 0.013799-0.013799-0.013799-0.21559 0-0.22938 0.056571-0.056571 0.11469 0.11751 0.11469-0.057346 0-0.14613-0.06689-0.076434-0.11469-0.17204-0.00855-0.017097 0.013516-0.04383 0-0.057346-0.013516-0.013516-0.043829 0.013516-0.057346 0-0.027033-0.027033 0.027033-0.087659 0-0.11469-0.013517-0.013516-0.04383 0.013516-0.057346 0s0-0.038231 0-0.057346c0-0.013908-0.00184-0.17019 0-0.17204 0.013517-0.013517 0.04383 0.013517 0.057346 0s-0.013517-0.04383 0-0.057346c0.013516-0.013517 0.043829 0.013517 0.057346 0 0.013516-0.013517-0.013516-0.04383 0-0.057346s0.043829 0.013517 0.057346 0c0.013516-0.013517-0.013516-0.04383 0-0.057346s0.038231 0 0.057346 0c0.029987 0 0.21431-0.0075393 0.22938 0 0.024179 0.01209 0.033167 0.045256 0.057346 0.057346 0.017097 0.0085487 0.04383-0.013517 0.057346 0 0.013517 0.013517-0.00855 0.040249 0 0.057346 0.01209 0.024179 0.045256 0.033167 0.057346 0.057346 0.00855 0.017097-0.013517 0.04383 0 0.057346 0.013516 0.013517 0.043829-0.013517 0.057346 0s0 0.038231 0 0.057346c0 0.013908 0.00184 0.17019 0 0.17204-0.013516 0.013516-0.043829-0.013516-0.057346 0s0.013516 0.04383 0 0.057346c-0.013517 0.013516-0.04383-0.013516-0.057346 0-0.013517 0.013516 0.013517 0.04383 0 0.057346-0.013517 0.013516-0.04383-0.013516-0.057346 0-0.00573 0.005735-0.00573 0.1663 0 0.17204 0.013517 0.013516 0.04383-0.013516 0.057346 0 0.028673 0.028673-0.028673 0.14337 0 0.17204 0.013517 0.013516 0.043829-0.013516 0.057346 0 0.013799 0.013799-0.013799 0.21559 0 0.22938 0.013516 0.013517 0.043829-0.013516 0.057346 0 0.028673 0.028673-0.028673 0.14337 0 0.17204 0.013517 0.013516 0.04383-0.013516 0.057346 0 0.011724 0.011724-0.011369 0.1493 0 0.17204 0.01209 0.024179 0.045256 0.033167 0.057346 0.057346 0.015555 0.03111-0.015691 0.21369 0 0.22938 0.013517 0.013517 0.04383-0.013516 0.057346 0 0.013799 0.013799-0.013799 0.21559 0 0.22938 0.013517 0.013517 0.04383-0.013516 0.057346 0 0.013801 0.013799-0.013798 0.21559 0 0.22938 0.076462 0.076461 0.057346-0.095577 0.057346 0.057346v0.057346c0 0.019115-0.013518 0.043829 0 0.057346 0.013518 0.013516 0.043829-0.013517 0.057346 0 0.013518 0.013516-0.00855 0.040249 0 0.057346 0.012089 0.024179 0.045256 0.033167 0.057346 0.057346 0.00855 0.017097-0.00855 0.040249 0 0.057346 0.012089 0.024179 0.045257 0.033167 0.057346 0.057346 0.00855 0.017097-0.00855 0.040249 0 0.057346 0.012089 0.02418 0.045256 0.033167 0.057346 0.057346 0.00855 0.017097 0 0.038231 0 0.057346 0.019116 0.019116 0.045257 0.033167 0.057346 0.057346 0.00855 0.017097-0.013518 0.04383 0 0.057346 0.013517 0.013517 0.043829-0.013518 0.057346 0 0.027033 0.027033-0.027033 0.087659 0 0.11469 0.013518 0.013517 0.04383-0.013518 0.057346 0 0.013517 0.013517-0.013518 0.043829 0 0.057346 0.013517 0.013518 0.043829-0.013518 0.057346 0 0.013518 0.013518-0.013517 0.04383 0 0.057346 0.013518 0.013517 0.04383-0.013518 0.057346 0 0.013517 0.013517-0.013518 0.043829 0 0.057346 0.013517 0.013518 0.043829-0.013517 0.057346 0 0.013518 0.013518-0.013518 0.04383 0 0.057346 0.013518 0.013517 0.040249-0.00855 0.057346 0 0.02418 0.012089 0.033167 0.045257 0.057346 0.057346 0.017097 0.00855 0.04383-0.013518 0.057346 0 0.013518 0.013518-0.013518 0.043829 0 0.057346 0.027033 0.027033 0.087659-0.027033 0.11469 0 0.013518 0.013517-0.013517 0.043829 0 0.057346 0.013518 0.013518 0.043829-0.013518 0.057346 0 0.013518 0.013518 0 0.038231 0 0.057346 0 0.019116 0.013518 0.04383 0 0.057346-0.013518 0.013518-0.04383-0.013518-0.057346 0-0.027033 0.027033 0.027033 0.087659 0 0.11469-0.013517 0.013518-0.04383-0.013518-0.057346 0-0.013518 0.013518 0.00855 0.040249 0 0.057346-0.012089 0.02418-0.045256 0.033167-0.057346 0.057346-0.00855 0.017097 0.013518 0.04383 0 0.057346-0.013518 0.013517-0.04383-0.013518-0.057346 0-0.027033 0.027033 0.027033 0.087659 0 0.11469-0.013518 0.013518-0.04383-0.013518-0.057346 0-0.013518 0.013518 0.00855 0.040249 0 0.057346-0.012089 0.02418-0.045257 0.033167-0.057346 0.057346-0.00855 0.017097 0.013518 0.04383 0 0.057346-0.013518 0.013518-0.04383-0.013518-0.057346 0-0.027033 0.027033 0.017097 0.080498 0 0.11469-0.012089 0.02418-0.045257 0.033167-0.057346 0.057346-0.00855 0.017097 0.00855 0.040249 0 0.057346-0.012089 0.02418-0.045256 0.033167-0.057346 0.057346-0.017097 0.034195 0.027033 0.087659 0 0.11469-0.013518 0.013518-0.04383-0.013517-0.057346 0-0.028673 0.028673 0.028673 0.14337 0 0.17204-0.013518 0.013517-0.043829-0.013518-0.057346 0-0.013518 0.013517 0.00855 0.040249 0 0.057346-0.012089 0.02418-0.045257 0.033167-0.057346 0.057346-0.017097 0.034194 0.027033 0.087659 0 0.11469-0.013517 0.013517-0.043829-0.013518-0.057346 0-0.027033 0.027033 0.027033 0.087659 0 0.11469-0.013518 0.013518-0.04383-0.013517-0.057346 0-0.013798 0.013798 0.013801 0.21559 0 0.22938-0.013517 0.013518-0.043829-0.013518-0.057346 0-0.013518 0.013518 0 0.038231 0 0.057346v0.40142 0.057346c0 0.019116 0.013518 0.04383 0 0.057346-0.013518 0.013517-0.04383-0.013518-0.057346 0-0.076462 0.076462 0.095577 0.057346-0.057346 0.057346"/>
   <path d="m2.1218 0.57346v2.2938 0.45877c0 0.019116 0.013517 0.043829 0 0.057346-0.013516 0.013517-0.043829-0.013518-0.057346 0-0.028673 0.028673 0.028673 0.14337 0 0.17204-0.013517 0.013518-0.04383-0.013518-0.057346 0s0.013517 0.04383 0 0.057346c-0.013516 0.013518-0.040249-0.00855-0.057346 0-0.024179 0.012089-0.033167 0.045256-0.057346 0.057346-0.017097 0.00855-0.043829-0.013518-0.057346 0-0.027033 0.027033 0.027033 0.087659 0 0.11469-0.013517 0.013518-0.04383-0.013518-0.057346 0-0.00184 0.00185 0 0.15813 0 0.17204 0 0.019116-0.013516 0.04383 0 0.057346 0.013517 0.013518 0.04383-0.013518 0.057346 0s-0.013517 0.04383 0 0.057346c0.013516 0.013518 0.043829-0.013517 0.057346 0 0.013516 0.013518-0.013516 0.04383 0 0.057346 0.013516 0.013518 0.043829-0.013518 0.057346 0 0.013516 0.013518-0.013516 0.04383 0 0.057346 0.013516 0.013518 0.038231 0 0.057346 0 0.02106 0 0.22708 0.0023 0.22938 0 0.027033-0.027033-0.027033-0.087659 0-0.11469 0.013516-0.013517 0.043829 0.013518 0.057346 0 0.013517-0.013517-0.00855-0.040249 0-0.057346 0.01209-0.02418 0.045257-0.033167 0.057346-0.057346 0.00754-0.015079 0-0.1994 0-0.22938 0-0.019116 0.013517-0.04383 0-0.057346-0.013517-0.013518-0.04383 0.013518-0.057346 0-0.013517-0.013518 0.013517-0.04383 0-0.057346-0.013517-0.013517-0.043829 0.013518-0.057346 0-0.013517-0.013517 0.013516-0.04383 0-0.057346-0.00184-0.00185-0.15813 0-0.17204 0"/>
  </g>
  <g>
   <path transform="scale(.26458)" d="m4.4056 61.129c-0.91438-0.45692-1.5557-0.97484-2.0799-1.6797l-0.7579-1.0191 0.52809-0.90556c0.48708-0.83524 0.52843-1.1298 0.53253-3.793 0.00495-3.216 0.48767-9.4614 0.8588-11.111 0.13255-0.58919 0.23307-1.8084 0.22337-2.7093-0.016311-1.5159 0.23558-4.6804 0.57896-7.2733 0.25352-1.9144 0.31575-6.5734 0.098316-7.3608-0.19218-0.69601-0.15989-0.7985 0.36734-1.1661 0.98202-0.68461 2.6373-1.1181 4.2696-1.1181 1.3505 0 1.6308 0.06999 2.1288 0.5315 0.50332 0.46646 0.5735 0.69871 0.5735 1.8979 0 0.75153 0.10134 1.7071 0.2252 2.1236s0.32523 2.7078 0.44749 5.092c0.27644 5.3906 0.3995 7.0624 0.55045 7.4776 0.06501 0.17881 0.10352 1.3284 0.08556 2.5546-0.04285 2.9265 0.36213 8.0393 0.77235 9.7507 0.17928 0.74794 0.45798 2.3572 0.61934 3.5762 0.16136 1.219 0.35744 2.467 0.43573 2.7733 0.11418 0.4467 2.12e-4 0.69724-0.57574 1.2657-0.39495 0.38984-1.1781 0.94387-1.7404 1.2312-0.9296 0.475-1.2852 0.52237-3.9209 0.52237-2.7971 0-2.9449-0.02312-4.2206-0.66061z" fill="#333" opacity=".99"/>
   <path transform="scale(.26458)" d="m9.0829 181.63c-0.56024-0.08769-1.1074-0.21434-1.216-0.28143-0.39082-0.24153-0.49929-2.3659-0.67824-13.283-0.099982-6.0994-0.24568-11.193-0.32377-11.32-0.078094-0.12636-0.17741-1.1343-0.2207-2.2398-0.043293-1.1055-0.12611-2.9366-0.18404-4.0691s-0.10903-2.4492-0.11355-2.926c-0.010972-1.1575-0.6599-11.305-0.91477-14.305-0.11142-1.3113-0.20025-2.7051-0.1974-3.0973 0.00285-0.39225-0.053179-0.8076-0.12451-0.92301-0.071326-0.1154-0.12044-2.6899-0.10914-5.721 0.011301-3.0312-0.07728-5.9319-0.19685-6.4462-0.1227-0.52773-0.32418-8.2045-0.46256-17.624-0.13484-9.179-0.33101-17.372-0.43593-18.206-0.29024-2.3084-0.35989-3.0571-0.5141-5.5269-0.078154-1.2517-0.19673-2.4221-0.2635-2.6009-0.066769-0.17881-0.10393-0.86381-0.082582-1.5222 0.021349-0.65841-0.066448-1.474-0.1951-1.8124s-0.29112-1.3562-0.36102-2.2619c-0.069907-0.90564-0.2172-1.8836-0.32732-2.1732-0.26068-0.68563-0.12567-0.79252 0.49751-0.39392 1.0964 0.70126 2.8183 1.0111 5.619 1.0111 2.598 0 2.8422-0.03774 4.2073-0.65022 1.705-0.76497 1.937-0.79869 1.6369-0.23785-0.19157 0.35795-0.58768 2.7882-0.75436 4.6281-0.02976 0.32849-0.11858 0.66173-0.19738 0.74053-0.0788 0.0788-0.14755 1.0292-0.15279 2.112-0.0052 1.0828-0.10044 2.7002-0.21157 3.5943-0.54546 4.3884-0.90032 10.735-1.0847 19.398-0.11163 5.2451-0.278 11.731-0.36973 14.413-0.09173 2.6822-0.22999 18.922-0.30725 36.087-0.13442 29.867-0.24292 35.184-0.72649 35.606-0.11921 0.10397-0.67512 0.11729-1.2354 0.0296z" fill="#333" opacity=".99"/>
   <path transform="scale(.26458)" d="m4.4663 64.244c-0.59604-0.18274-1.4629-0.59046-1.9264-0.90605-0.75062-0.5111-0.85214-0.68812-0.92888-1.6198l-0.086161-1.0459 0.82051 0.64951c1.8625 1.4744 2.4734 1.6498 6.0397 1.7345 3.1973 0.07593 3.2941 0.0648 4.4432-0.51125 0.64609-0.32388 1.3454-0.73917 1.554-0.92287 0.35117-0.30923 0.3793-0.28577 0.3793 0.31623 0 0.80805-0.4052 1.1647-2.059 1.8121-0.71525 0.28001-1.3931 0.58715-1.5064 0.68254-0.37332 0.31444-5.5631 0.16868-6.7298-0.18901z" fill="#a00" opacity=".99"/>
   <path transform="scale(.26458)" d="m8.274 184.7c-0.24653-0.34623-0.44824-0.90705-0.44824-1.2463 0-0.60933 0.015677-0.61676 1.3004-0.61676 1.229 0 1.3004 0.0286 1.3004 0.52139 0 0.60998-0.97028 1.9711-1.4051 1.9711-0.16463 0-0.50103-0.28327-0.74756-0.62949z" fill="#fff" opacity=".99"/>
   <path transform="scale(.26458)" d="m5.4656 20.98c-0.031174-1.0389-0.2693-1.8669-1.1155-3.8787-0.59174-1.4068-1.0759-2.6442-1.0759-2.7498 0-0.10559-0.1463-0.3134-0.32511-0.4618-0.48881-0.40568-0.40816-0.66646 0.57096-1.8463 0.49284-0.59385 1.572-2.4451 2.3981-4.1139l1.5021-3.0342-0.068161 4.0599c-0.065555 3.9047-0.086475 4.0727-0.54718 4.395-0.68336 0.47808-0.88011 1.7295-0.36194 2.3021 0.98837 1.0921 2.1963 1.0197 2.7615-0.16554 0.47975-1.0061 0.44708-1.5251-0.13246-2.1039-0.47835-0.47775-0.4856-0.56146-0.3793-4.3792l0.10837-3.8921 0.39728 1.7339c0.52509 2.2917 1.6669 4.5438 2.8809 5.6825l0.97472 0.91415-0.60904 1.0365c-1.197 2.0372-2.2654 4.7053-2.3895 5.9674l-0.12252 1.2463h-1.3515c-0.74331 0-1.7395 0.13692-2.2139 0.30427l-0.8624 0.30427z" fill="#e6e6e6" opacity=".99"/>
   <path transform="scale(.26458)" d="m7.6113 1.6463c-0.35195-0.42407-0.12469-0.9781 0.4012-0.9781 0.51264 0 0.77585 0.59895 0.44067 1.0028-0.31633 0.38115-0.50975 0.37548-0.84187-0.024711z" fill="#e6e6e6" opacity=".99"/>
  </g>
 </g>
</svg>
