<svg width="4.4739mm" height="28.531mm" version="1.1" viewBox="0 0 4.4739 28.531" xmlns="http://www.w3.org/2000/svg">
 <g transform="matrix(.995 0 0 .995 -.030937 .14491)" fill="none" stroke="#000" stroke-width=".26458px">
  <path d="m4.3522 5.1984c0 0.16119 0.020149-0.020149-0.060447 0.060447-0.014248 0.014248 0.014248 0.046199 0 0.060447-0.014247 0.014248-0.046199-0.014248-0.060447 0-0.014248 0.014247 0.00901 0.042426 0 0.060447-0.12578 0.25157 0.00417-0.06462-0.12089 0.060447-0.014248 0.014248 0.014248 0.046199 0 0.060447s-0.046199-0.014248-0.060447 0 0.014248 0.046199 0 0.060447c-0.014247 0.014248-0.046199-0.014248-0.060447 0s0.014248 0.046199 0 0.060447-0.040299 0-0.060447 0h-0.36268c-0.022199 0-0.23936 0.00243-0.24179 0-0.014248-0.014247 0.014248-0.046199 0-0.060447s-0.046199 0.014248-0.060447 0c-0.014248-0.014247 0.00901-0.042426 0-0.060447-0.012743-0.025487-0.047705-0.03496-0.060447-0.060447-0.0092-0.018396 0-0.15412 0-0.18134v-0.060447c0-0.020149 0.020148-0.060447 0-0.060447s0 0.040299 0 0.060447c0 0.16119 0.020149-0.020149-0.060447 0.060447-0.021217 0.021218 0.020876 0.26048 0 0.30224-0.012743 0.025487-0.047705 0.03496-0.060447 0.060447-0.018021 0.036043 0.028495 0.092399 0 0.12089-0.014248 0.014248-0.046199-0.014248-0.060447 0-0.014248 0.014247 0.00901 0.042426 0 0.060447-0.012743 0.025487-0.047705 0.03496-0.060447 0.060447-0.00901 0.018022 0.014248 0.046199 0 0.060447-0.014247 0.014248-0.046199-0.014248-0.060447 0-0.014248 0.014247 0.014248 0.046199 0 0.060447s-0.046199-0.014248-0.060447 0 0.014248 0.046199 0 0.060447-0.046199-0.014248-0.060447 0 0.014248 0.046199 0 0.060447c-0.028495 0.028495-0.092399-0.028495-0.12089 0-0.014248 0.014247 0.014248 0.046199 0 0.060447-0.028495 0.028495-0.092399-0.028495-0.12089 0-0.014248 0.014247 0.014248 0.046199 0 0.060447-0.00274 0.00274-0.27373 0-0.30224 0-0.022198 0-0.23936 0.00243-0.24179 0-0.014248-0.014247 0.014247-0.046199 0-0.060447s-0.046199 0.014248-0.060447 0c-0.014247-0.014247 0.014248-0.046199 0-0.060447-0.028495-0.028495-0.092399 0.028495-0.12089 0-0.014248-0.014247 0.014247-0.046199 0-0.060447s-0.046199 0.014248-0.060447 0c-0.014247-0.014248 0.00901-0.042426 0-0.060447-0.012743-0.025487-0.047704-0.03496-0.060447-0.060447-0.00901-0.018022 0.014248-0.046199 0-0.060447-0.014247-0.014248-0.046199 0.014248-0.060447 0-0.014248-0.014247 0.014248-0.046199 0-0.060447-0.014247-0.014248-0.046199 0.014248-0.060447 0-0.014247-0.014248 0.00901-0.042426 0-0.060447-0.012743-0.025487-0.047704-0.03496-0.060447-0.060447-0.00901-0.018022 0.014247-0.046199 0-0.060447-0.014248-0.014248-0.0462 0.014248-0.060447 0-0.014248-0.014247 0.00901-0.042426 0-0.060447-0.012743-0.025486-0.047704-0.03496-0.060447-0.060447-0.00901-0.018022 0-0.040299 0-0.060447v-0.060447c0-0.020149 0.020149-0.060447 0-0.060447s0.014248 0.046199 0 0.060447-0.0462-0.014248-0.060447 0c-0.014248 0.014247 0.014247 0.046199 0 0.060447-0.014248 0.014248-0.0462-0.014248-0.060447 0-0.028495 0.028495 0.028495 0.092399 0 0.12089-0.014248 0.014248-0.046199-0.014248-0.060447 0s0.014248 0.046199 0 0.060447c-0.12506 0.12507 0.00489-0.19112-0.12089 0.060447-0.00901 0.018022 0.014247 0.046199 0 0.060447-0.014248 0.014248-0.040298 0-0.060447 0h-0.060447c-0.022198 0-0.23936 0.00243-0.24179 0-0.014248-0.014248 0.014248-0.046199 0-0.060447-0.014247-0.014248-0.0462 0.014248-0.060447 0-0.014248-0.014247 0.014248-0.046199 0-0.060447s-0.0462 0.014248-0.060447 0c-0.014248-0.014247 0.014248-0.046199 0-0.060447s-0.0462 0.014248-0.060447 0c-0.014248-0.014247 0.014248-0.046199 0-0.060447s-0.0462 0.014248-0.060447 0 0.014248-0.046199 0-0.060447c-0.014248-0.014248-0.0462 0.014248-0.060447 0s0.014248-0.046199 0-0.060447-0.0462 0.014248-0.060447 0c-0.014248-0.014247 0.014248-0.046199 0-0.060447s-0.0462 0.014248-0.060447 0c-0.014248-0.014247 0.014248-0.046199 0-0.060447s-0.0462 0.014248-0.060447 0 0.014248-0.046199 0-0.060447-0.0462 0.014248-0.060447 0c-0.002433-0.00243 0-0.21959 0-0.24179 0-0.020149-0.014248-0.046199 0-0.060447s0.0462 0.014248 0.060447 0c0.030224-0.030224-0.030224-0.15112 0-0.18134 0.014248-0.014248 0.0462 0.014248 0.060447 0 0.028495-0.028495-0.028495-0.092399 0-0.12089 0.014248-0.014248 0.0462 0.014248 0.060447 0 0.028495-0.028495-0.028495-0.092399 0-0.12089 0.080596-0.080595 0.060447 0.10075 0.060447-0.060447v-0.060447c0-0.020149-0.009011-0.042426 0-0.060447 0.012743-0.025487 0.047704-0.03496 0.060447-0.060447 0.011984-0.023967-0.012358-0.16898 0-0.18134 0.014248-0.014248 0.0462 0.014248 0.060447 0 0.014546-0.014545-0.014546-0.22724 0-0.24179 0.014248-0.014248 0.0462 0.014248 0.060447 0 0.030224-0.030224-0.030224-0.15112 0-0.18134 0.014248-0.014248 0.0462 0.014248 0.060447 0 0.012358-0.012358-0.011983-0.15738 0-0.18134 0.012743-0.025487 0.047704-0.03496 0.060447-0.060447 0.018022-0.036044-0.028495-0.092399 0-0.12089 0.014248-0.014248 0.0462 0.014248 0.060447 0 0.030224-0.030223-0.030224-0.15112 0-0.18134 0.014248-0.014248 0.0462 0.014248 0.060447 0 0.030224-0.030224-0.030224-0.15112 0-0.18134 0.014248-0.014248 0.0462 0.014248 0.060447 0 0.030224-0.030224-0.030224-0.15112 0-0.18134 0.014248-0.014248 0.0462 0.014248 0.060447 0 0.028495-0.028495-0.018022-0.08485 0-0.12089 0.012743-0.025487 0.047704-0.03496 0.060447-0.060447 0.018022-0.036044-0.028495-0.092399 0-0.12089 0.014247-0.014248 0.046199 0.014248 0.060447 0 0.028495-0.028495-0.028495-0.092399 0-0.12089 0.014247-0.014248 0.046199 0.014248 0.060447 0 0.028495-0.028495-0.018022-0.08485 0-0.12089 0.012743-0.025487 0.047704-0.03496 0.060447-0.060447 0.018022-0.036044-0.028495-0.092399 0-0.12089 0.014247-0.014248 0.046199 0.014247 0.060447 0 0.028495-0.028495-0.028495-0.092399 0-0.12089 0.014248-0.014248 0.046199 0.014247 0.060447 0 0.028495-0.028495-0.028495-0.092399 0-0.12089 0.014248-0.014247 0.0462 0.014248 0.060447 0 0.028495-0.028495-0.018022-0.08485 0-0.12089 0.012743-0.025487 0.047704-0.03496 0.060447-0.060447 0.00901-0.018022-0.00901-0.042425 0-0.060447 0.012743-0.025487 0.047704-0.03496 0.060447-0.060447 0.00901-0.018022-0.00901-0.042425 0-0.060447 0.012743-0.025487 0.047704-0.03496 0.060447-0.060447 0.018022-0.036044-0.028495-0.092399 0-0.12089 0.014247-0.014248 0.046199 0.014248 0.060447 0 0.028495-0.028495-0.028495-0.092399 0-0.12089 0.014248-0.014247 0.0462 0.014248 0.060447 0 0.028495-0.028495-0.018022-0.08485 0-0.12089 0.012743-0.025487 0.047704-0.03496 0.060447-0.060447 0.00901-0.018022 0-0.040298 0-0.060447v-0.060447c0-0.04456-0.010036-0.27714 0-0.30224 0.033466-0.083664 0.080596-0.16119 0.12089-0.24179 0.10075-0.040298 0.20149-0.080596 0.30224-0.12089 0-0.020149-0.014247-0.0462 0-0.060447 0.028495-0.028495 0.08485 0.018022 0.12089 0 0.025487-0.012743 0.03496-0.047704 0.060447-0.060447 0.018396-0.009198 0.15412 0 0.18134 0h0.060447c0.020149 0 0.042425-0.0090109 0.060447 0 0.025487 0.012743 0.03496 0.047704 0.060447 0.060447 0.018022 0.0090109 0.0462-0.014248 0.060447 0 0.014248 0.014248-0.014247 0.0462 0 0.060447 0.014248 0.014248 0.0462-0.014248 0.060447 0 0.028495 0.028495-0.028495 0.092399 0 0.12089 0.014248 0.014248 0.0462-0.014248 0.060447 0 0.028495 0.028495-0.018022 0.08485 0 0.12089 0.012743 0.025487 0.047704 0.03496 0.060447 0.060447 0.011983 0.023967-0.012357 0.16898 0 0.18134 0.014248 0.014248 0.0462-0.014248 0.060447 0s0 0.040298 0 0.060447v0.30224c0 0.020149-0.014248 0.0462 0 0.060447 0.014247 0.014247 0.0462-0.014247 0.060447 0 0.014545 0.014545-0.014545 0.22724 0 0.24179 0.014248 0.014247 0.0462-0.014247 0.060447 0 0.012357 0.012358-0.011983 0.15737 0 0.18134 0.012743 0.025487 0.047704 0.03496 0.060447 0.060447 0.018022 0.036044-0.018022 0.08485 0 0.12089 0.012743 0.025487 0.047704 0.03496 0.060447 0.060447 0.018022 0.036044-0.028495 0.092399 0 0.12089 0.014248 0.014247 0.0462-0.014247 0.060447 0 0.028495 0.028495-0.028495 0.092399 0 0.12089 0.014247 0.014247 0.046199-0.014247 0.060447 0 0.028495 0.028495-0.018022 0.08485 0 0.12089 0.012743 0.025487 0.047704 0.03496 0.060447 0.060447 0.00901 0.018022-0.00901 0.042425 0 0.060447 0.012743 0.025487 0.047704 0.03496 0.060447 0.060447 0.018022 0.036044-0.028495 0.092399 0 0.12089 0.014247 0.014248 0.042425-0.00901 0.060447 0 0.25157 0.12578-0.06462-0.00417 0.060447 0.12089 0.014247 0.014247 0.0462-0.014248 0.060447 0 0.028495 0.028495-0.018022 0.08485 0 0.12089 0.012743 0.025487 0.047704 0.03496 0.060447 0.060447 0.018022 0.036044-0.028495 0.092399 0 0.12089 0.014247 0.014248 0.046199-0.014247 0.060447 0 0.014247 0.014248-0.00901 0.042425 0 0.060447 0.012743 0.025487 0.047704 0.03496 0.060447 0.060447 0.018022 0.036044-0.028495 0.092399 0 0.12089 0.014248 0.014247 0.0462-0.014248 0.060447 0 0.028495 0.028495-0.028495 0.092399 0 0.12089 0.014247 0.014248 0.040298 0 0.060447 0 0 0.020149-0.00901 0.042425 0 0.060447 0.012743 0.025487 0.047704 0.03496 0.060447 0.060447 0.00901 0.018022-0.00901 0.042425 0 0.060447 0.012743 0.025487 0.047704 0.03496 0.060447 0.060447 0.011983 0.023967-0.012358 0.16898 0 0.18134 0.014247 0.014247 0.0462-0.014248 0.060447 0 0.01654 0.01654-0.016396 0.209 0 0.24179 0.012743 0.025487 0.047704 0.03496 0.060447 0.060447 0.024179 0.048358-0.024179 0.13298 0 0.18134 0.012743 0.025487 0.047704 0.03496 0.060447 0.060447 0.024179 0.048358-0.024179 0.13298 0 0.18134 0.012743 0.025487 0.047704 0.03496 0.060447 0.060447 0.011983 0.023967-0.012358 0.16898 0 0.18134 0.014248 0.014248 0.0462-0.014247 0.060447 0 0.030223 0.030223-0.030223 0.15112 0 0.18134 0.080596 0.080596 0.060447-0.10075 0.060447 0.060447v0.060447c0 0.020149-0.014248 0.0462 0 0.060447 0.014247 0.014248 0.0462-0.014247 0.060447 0 0.014248 0.014248 0.014248 0.0462 0 0.060447-0.014247 0.014248-0.040298 0-0.060447 0"/>
  <path d="m1.5112 1.6321c-0.063144 0.207 0.18409 0.18684 0.24179 0.30224 0.00901 0.018022-0.014247 0.0462 0 0.060447 0.014248 0.014247 0.0462-0.014248 0.060447 0 0.014247 0.014247-0.014248 0.046199 0 0.060447 0.028495 0.028495 0.092399-0.028495 0.12089 0 0.014248 0.014247-0.014247 0.046199 0 0.060447 0.028495 0.028495 0.092399-0.028495 0.12089 0 0.014248 0.014248-0.014248 0.0462 0 0.060447 0.028495 0.028495 0.092399-0.028495 0.12089 0 0.014248 0.014248-0.014248 0.0462 0 0.060447 0.012358 0.012358 0.15737-0.011983 0.18134 0 0.025487 0.012743 0.03496 0.047704 0.060447 0.060447 0.015629 0.00781 0.31984 0 0.36268 0 0.020148 0 0.046199 0.014248 0.060447 0 0.080596-0.080596-0.10075-0.060447 0.060447-0.060447s-0.020148 0.020149 0.060447-0.060447c0.028495-0.028495 0.092399 0.028495 0.12089 0 0.014248-0.014248-0.014248-0.0462 0-0.060447 0.028495-0.028495 0.092399 0.028495 0.12089 0 0.014248-0.014248 0.014248-0.0462 0-0.060447-0.014248-0.014248-0.040298 0-0.060447 0"/>
  <path d="m0.18134 5.0776c0.18022 0.058201-0.045055 0.21213 0 0.30224 0.012743 0.025487 0.047704 0.03496 0.060447 0.060447 0.007947 0.015893 0 0.21018 0 0.24179v0.48358c0 0.031609-0.007947 0.22589 0 0.24179 0.012743 0.025487 0.047704 0.03496 0.060447 0.060447 0.007947 0.015893 0 0.21018 0 0.24179v0.54402 1.4507 0.78581c0 0.042845 0.007814 0.34705 0 0.36268-0.012743 0.025487-0.047704 0.03496-0.060447 0.060447-0.007814 0.015629 0 0.31984 0 0.36268v0.90671 3.0224 1.6925 0.48358c0 0.03161-0.007947 0.22589 0 0.24179 0.012743 0.02549 0.047704 0.03496 0.060447 0.06045 0.007947 0.01589 0 0.21018 0 0.24179v0.54402c0 0.0222-0.002432 0.23936 0 0.24179 0.014248 0.01425 0.0462-0.01425 0.060447 0 0.001945 0.0019 0 0.16668 0 0.18134v0.96715 0.84626c0 0.04284-0.007814 0.34705 0 0.36268 0.012743 0.02549 0.047704 0.03496 0.060447 0.06045 0.009011 0.01802 0 0.0403 0 0.06045v0.06045 3.385 0.72536 0.06045c0 0.02015 0.014248 0.0462 0 0.06045s-0.040298 0-0.060447 0"/>
  <path d="m0.36268 24.481c0.080596-6e-6 0.16119-1.2e-5 0.24179-1.7e-5 0 0.02015-0.014248 0.0462 0 0.06045s0.0462-0.01425 0.060447 0-0.014248 0.0462 0 0.06045c0.030224 0.03022 0.15112-0.03022 0.18134 0 0.014248 0.01425-0.014248 0.0462 0 0.06045s0.0462-0.01425 0.060447 0c0.014248 0.01425-0.014248 0.0462 0 0.06045 0.030224 0.03022 0.15112-0.03022 0.18134 0 0.014247 0.01425-0.014248 0.0462 0 0.06045 0.014545 0.01454 0.22724-0.01454 0.24179 0 0.014247 0.01425-0.014248 0.0462 0 0.06045 0.014247 0.01425 0.040298 0 0.060447 0h0.48358 0.36268c0.027223 0 0.16294 0.0092 0.18134 0 0.025487-0.01274 0.03496-0.0477 0.060447-0.06045 0.041753-0.02088 0.28102 0.02122 0.30224 0 0.014248-0.01425-0.014248-0.0462 0-0.06045 0.00274-0.0027 0.27373 0 0.30224 0 0.020148 0 0.046199 0.01425 0.060447 0s-0.014248-0.0462 0-0.06045c0.028495-0.02849 0.092399 0.0285 0.12089 0 0.014248-0.01425-0.014248-0.0462 0-0.06045 0.028495-0.02849 0.092399 0.0285 0.12089 0 0.014248-0.01425-0.014248-0.0462 0-0.06045s0.042425 9e-3 0.060447 0c0.025487-0.01274 0.03496-0.0477 0.060447-0.06045 0.018021-9e-3 0.042425 9e-3 0.060447 0 0.025487-0.01274 0.03496-0.0477 0.060447-0.06045 0.018021-9e-3 0.046199 0.01425 0.060447 0s-0.014248-0.0462 0-0.06045c0.028495-0.02849 0.092399 0.02849 0.12089 0 0.014248-0.01425-0.014248-0.0462 0-0.06045 0.028495-0.02849 0.092399 0.02849 0.12089 0 0.014248-0.01425-0.014248-0.0462 0-0.06045 0.088942 0 0.046199 0.01425 0.12089-0.06045 0.040298 0.06045 0.088404 0.11637 0.12089 0.18136 0.00901 0.01802 0 0.0403 0 0.06045v0.06045 0.30224 0.06045c0 0.02015-0.014248 0.0462 0 0.06045 0.014247 0.01425 0.046199-0.01425 0.060447 0 0.014247 0.01425 0 0.0403 0 0.06045 0 0.0285-0.00274 0.2995 0 0.30224 0.014247 0.01425 0.046199-0.01425 0.060447 0 0.014247 0.01425 0 0.0403 0 0.06045 0 0.01466 0.00194 0.1794 0 0.18134-0.014248 0.01425-0.0462-0.01425-0.060447 0-0.014248 0.01425 0.014247 0.0462 0 0.06045-0.014248 0.01425-0.0462-0.01425-0.060447 0-0.014248 0.01425 0.014247 0.0462 0 0.06045-0.014248 0.01425-0.0462-0.01425-0.060447 0-0.014248 0.01425 0.014247 0.0462 0 0.06045-0.014248 0.01425-0.0462-0.01425-0.060447 0-0.014248 0.01425 0.014247 0.0462 0 0.06045-0.028495 0.02849-0.092399-0.0285-0.12089 0-0.014248 0.01425 0.014247 0.0462 0 0.06045-0.014248 0.01425-0.0462-0.01425-0.060447 0s0.014248 0.0462 0 0.06045c-0.028495 0.02849-0.092399-0.0285-0.12089 0-0.014248 0.01425 0.014247 0.0462 0 0.06045-0.014248 0.01425-0.0462-0.01425-0.060447 0s0.014248 0.0462 0 0.06045c-0.028495 0.02849-0.092399-0.02849-0.12089 0-0.014248 0.01425 0.014247 0.0462 0 0.06045-0.028495 0.02849-0.08485-0.01802-0.12089 0-0.025487 0.01274-0.03496 0.0477-0.060447 0.06045-0.036044 0.01802-0.092399-0.02849-0.12089 0-0.014248 0.01425 0.014248 0.0462 0 0.06045-0.030223 0.03022-0.15112-0.03022-0.18134 0-0.014247 0.01425 0.014248 0.0462 0 0.06045-0.030223 0.03022-0.15112-0.03022-0.18134 0-0.014247 0.01425 0.014248 0.0462 0 0.06045-0.014247 0.01425-0.040298 0-0.060447 0h-0.48358-0.36268c-0.020149 0-0.0462 0.01425-0.060447 0s0.014247-0.0462 0-0.06045c-0.018717-0.01872-0.28352 0.01872-0.30224 0-0.014247-0.01425 0.014248-0.0462 0-0.06045-0.018717-0.01872-0.28352 0.01872-0.30224 0-0.014247-0.01425 0.014247-0.0462 0-0.06045-0.01654-0.01654-0.209 0.0164-0.24179 0-0.025487-0.01274-0.03496-0.0477-0.060447-0.06045-0.036044-0.01802-0.092399 0.02849-0.12089 0-0.014248-0.01425 0.014248-0.0462 0-0.06045s-0.042425 9e-3 -0.060447 0c-0.025487-0.01274-0.03496-0.0477-0.060447-0.06045-0.018022-9e-3 -0.0462 0.01425-0.060447 0s0.014248-0.0462 0-0.06045-0.042425 9e-3 -0.060447 0c-0.050973-0.02549-0.069921-0.09541-0.12089-0.12089-0.018022-9e-3 -0.0462 0.01425-0.060447 0-0.001944-0.0019 0-0.16668 0-0.18134 0-0.04284 0.007814-0.34705 0-0.36268-0.012743-0.02549-0.047704-0.03496-0.060447-0.06045-0.024179-0.04836 0.024179-0.13298 0-0.18134-0.074695-0.14939-0.060447 0.02087-0.060447-0.12089-3e-8 -0.12089-7e-8 -0.24178-1e-7 -0.36266z"/>
  <path d="m0.72536 26.053v0.30224c0 0.02015-0.009011 0.04243 0 0.06045 0.012743 0.02549 0.047704 0.03496 0.060447 0.06045 0.009198 0.01839 0 0.15412 0 0.18134 0 0.01466-0.001945 0.1794 0 0.18134 0.014248 0.01423 0.0462-0.01423 0.060447 0 0.01654 0.01654-0.016396 0.20899 0 0.24179 0.012743 0.02548 0.047704 0.03496 0.060447 0.06045 0.019067 0.03814-0.019067 0.2641 0 0.30224 0.012743 0.02548 0.047704 0.03496 0.060447 0.06045 0.011983 0.02397-0.012358 0.16898 0 0.18134 0.014248 0.01423 0.0462-0.01423 0.060447 0 0.028495 0.0285-0.028495 0.0924 0 0.1209 0.014247 0.01423 0.046199-0.01423 0.060447 0 0.028495 0.02849-0.028495 0.0924 0 0.12089 0.014247 0.01423 0.046199-0.01426 0.060447 0 0.028495 0.02849-0.028495 0.0924 0 0.12089 0.014247 0.01423 0.046199-0.01423 0.060447 0s-0.014248 0.0462 0 0.06045c0.014248 0.01423 0.046199-0.01423 0.060447 0 0.014247 0.01423-0.014248 0.0462 0 0.06045 0.014247 0.01423 0.046199-0.01423 0.060447 0 0.014247 0.01423-0.014248 0.0462 0 0.06045 0.028495 0.02849 0.092399-0.0285 0.12089 0 0.014247 0.01423-0.014248 0.0462 0 0.06045 0.014247 0.01423 0.046199-0.01424 0.060447 0 0.014247 0.01423-0.014248 0.0462 0 0.06045 0.037798 0.0378 0.083096-0.0378 0.12089 0 0.014248 0.01423-0.014248 0.0462 0 0.06045 0.028495 0.0285 0.092399-0.0285 0.12089 0 0.014248 0.01423-0.014247 0.0462 0 0.06045 0.014248 0.01426 0.040298 0 0.060447 0h0.36268 0.48358c0.020148 0 0.0462 0.01426 0.060447 0 0.014248-0.01423-0.014248-0.0462 0-0.06045 0.028495-0.0285 0.092399 0.0285 0.12089 0 0.014248-0.01423-0.014248-0.0462 0-0.06045 0.012359-0.01236 0.15737 0.01199 0.18134 0 0.025487-0.01275 0.03496-0.0477 0.060447-0.06045 0.023966-0.01199 0.16898 0.01236 0.18134 0 0.014248-0.01424-0.014248-0.0462 0-0.06045 0.028495-0.0285 0.08485 0.01802 0.12089 0 0.025487-0.01275 0.03496-0.0477 0.060447-0.06045 0.018021-9e-3 0.042425 9e-3 0.060447 0 0.025487-0.01275 0.03496-0.0477 0.060447-0.06045 0.018021-9e-3 0.046199 0.01423 0.060447 0s-0.014248-0.0462 0-0.06045c0.014248-0.01423 0.046199 0.01423 0.060447 0s-0.014248-0.0462 0-0.06045c0.014248-0.01426 0.0462 0.01423 0.060447 0 0.014248-0.01426-0.014248-0.0462 0-0.06045 0.014248-0.01426 0.0462 0.01423 0.060447 0 0.014248-0.01426-0.014248-0.0462 0-0.06045 0.014248-0.01423 0.046199 0.01426 0.060447 0 0.014248-0.01423-0.00901-0.04243 0-0.06045 0.012742-0.02548 0.047704-0.03496 0.060447-0.06045 0.018021-0.03604-0.028495-0.0924 0-0.1209 0.014248-0.01423 0.046199 0.01423 0.060447 0 0.014547-0.01455-0.014544-0.22724 0-0.24179 0.014248-0.01426 0.0462 0.01423 0.060447 0 0.030223-0.03022-0.030224-0.15112 0-0.18134 0.014248-0.01423 0.046199 0.01423 0.060447 0s0-0.0403 0-0.06045v-0.30223c0-0.02016-0.014248-0.0462 0-0.06045 0.014248-0.01423 0.046199 0.01424 0.060447 0 0.014248-0.01423 0-0.0403 0-0.06045v-0.06045-0.36268-0.06045c0-0.02015-0.00901-0.04243 0-0.06045 0.012742-0.02549 0.047704-0.03496 0.060447-0.06045 0.00901-0.01802 0-0.0403 0-0.06045v-0.06045-0.30224"/>
  <path d="m1.2694 5.5007v0.66492c0 0.027223-0.0092 0.16294 0 0.18134 0.012743 0.025487 0.047704 0.03496 0.060447 0.060447 0.00795 0.015893 0 0.21018 0 0.24179v0.48358c0 0.031609-0.00795 0.22589 0 0.24179 0.012743 0.025487 0.047704 0.03496 0.060447 0.060447 0.0092 0.018396 0 0.15412 0 0.18134v0.42313 1.088 0.72536 0.060447c0 0.020148 0.014248 0.046199 0 0.060447-0.014247 0.014248-0.046199-0.014248-0.060447 0s0.014247 0.0462 0 0.060447c-0.014248 0.01425-0.046199-0.01425-0.060447 0-0.00194 0.0019 0 0.16668 0 0.18134v0.66492c0 0.03161 0.00795 0.22589 0 0.24179-0.012743 0.02549-0.047704 0.03496-0.060447 0.06045-0.0092 0.0184 0 0.15412 0 0.18134v0.36268 0.78581 0.42313c0 0.02722 0.0092 0.16294 0 0.18134-0.012743 0.02549-0.047704 0.03496-0.060447 0.06045-0.00901 0.01802 0 0.0403 0 0.06045v0.06045 0.36268 0.78581c0 0.0222 0.00243 0.23936 0 0.24179-0.014248 0.01425-0.0462-0.01425-0.060447 0-0.00243 0.0024 0 0.21959 0 0.24179v1.5112 1.8739 0.66492c0 0.04204-0.01093 0.28038 0 0.30224 0.012743 0.02549 0.047704 0.03496 0.060447 0.06045 0.00901 0.01802 0 0.0403 0 0.06045v0.06045 0.36268 0.06045c0 0.02015-0.00901 0.04243 0 0.06045 0.012743 0.02549 0.047704 0.03496 0.060447 0.06045 0.00795 0.01589 0 0.21018 0 0.24179v0.48358c0 0.02722-0.0092 0.16294 0 0.18134 0.012743 0.02549 0.047704 0.03496 0.060447 0.06045 0.01093 0.02186 0 0.26019 0 0.30224v0.78581 2.5388"/>
  <path d="m3.1432 5.4402v0.60447c0 0.03972-0.011369 0.14724 0 0.18134 0.014248 0.042742 0.0462 0.078152 0.060447 0.12089 0.012682 0.038045 0 0.24775 0 0.30224v0.66492 1.9343 0.78581c0 0.04284 0.00782 0.34705 0 0.36268-0.012742 0.02549-0.047704 0.03496-0.060447 0.06045-0.00781 0.01563 0 0.31984 0 0.36268 0 0.01466 0.00193 0.1794 0 0.18134-0.014248 0.01425-0.046199-0.01425-0.060447 0s0 0.0403 0 0.06045c0 0.04284 0.00781 0.34705 0 0.36268-0.012742 0.02549-0.047704 0.03496-0.060447 0.06045-0.00901 0.01802 0 0.0403 0 0.06045v0.06045 0.36268 0.06045c0 0.02015 0.00901 0.04242 0 0.06045-0.012742 0.02549-0.047704 0.03496-0.060447 0.06045-0.0092 0.0184 0 0.15412 0 0.18134v0.48358c0 0.03161 0.00795 0.22589 0 0.24179-0.012742 0.02549-0.047704 0.03496-0.060447 0.06045-0.00781 0.01563 0 0.31984 0 0.36268 0 0.02015 0.00901 0.04242 0 0.06045-0.012742 0.02549-0.047704 0.03496-0.060447 0.06045-0.00901 0.01802 0 0.0403 0 0.06045v0.06045 0.36268c0 0.02722 0.0092 0.16294 0 0.18134-0.012742 0.02549-0.047704 0.03496-0.060447 0.06045-0.00795 0.01589 0 0.21018 0 0.24179v0.48358c0 0.03161 0.00795 0.22589 0 0.24179-0.012742 0.02549-0.047704 0.03496-0.060447 0.06045-0.00795 0.01589 0 0.21018 0 0.24179v0.60447 2.0552 4.05 0.54402 0.06045c0 0.02015 0.014248 0.0462 0 0.06045s-0.046199-0.01425-0.060447 0 0 0.0403 0 0.06045v0.48358 1.0276"/>
  <path d="m4.3522 5.1984c-0.080377 0.52092-0.060446 1.0468-0.060446 1.5716 0 0.042043 0.01093 0.28038 0 0.30224-0.012742 0.025487-0.047704 0.03496-0.060447 0.060447-0.018997 0.037992 0.018997 0.2038 0 0.24179-0.012742 0.025487-0.047703 0.03496-0.060447 0.060447-0.019069 0.038134 0.019066 0.2641 0 0.30224-0.012742 0.025487-0.047704 0.03496-0.060447 0.060447-0.00901 0.018021 0 0.040298 0 0.060447v0.30224 0.060447c0 0.020148 0.00901 0.042425 0 0.060447-0.012742 0.025487-0.047704 0.03496-0.060447 0.060447-0.00782 0.015629 0 0.31984 0 0.36268v0.78581 3.5059 0.84626 0.06045c0 0.02015 0.014248 0.0462 0 0.06045s-0.0462-0.01425-0.060447 0c-0.014248 0.01425 0 0.0403 0 0.06045v0.48358 0.30224c0 0.02015 0.014248 0.0462 0 0.06045s-0.046199-0.01425-0.060447 0 0 0.0403 0 0.06045v0.42313 0.54402 0.06045c0 0.02015 0.014248 0.0462 0 0.06045s-0.046199-0.01425-0.060447 0c-0.00243 0.0024 0 0.21959 0 0.24179v1.5716 0.66492c0 0.04204-0.01093 0.28038 0 0.30224 0.012742 0.02549 0.047704 0.03496 0.060447 0.06045 0.00781 0.01563 0 0.31984 0 0.36268 0 0.02015-0.00901 0.04243 0 0.06045 0.012742 0.02549 0.047704 0.03496 0.060447 0.06045 0.00795 0.01589 0 0.21018 0 0.24179v0.60447 0.36268c0 0.02015-0.014248 0.0462 0 0.06045s0.0462-0.01425 0.060447 0c0.014248 0.01425 0 0.0403 0 0.06045v0.06045 0.90671c0 0.84625-2e-7 1.6925 0 2.5388"/>
 </g>
 <g fill="#800000">
  <path transform="scale(.26458)" d="m9.0667 8.541c-0.13328-0.074575-0.56029-0.26714-0.94891-0.42793-0.38863-0.16079-0.97019-0.50185-1.2924-0.75793-0.32218-0.25608-0.67848-0.51749-0.79177-0.58093-0.158-0.088467-0.11692-0.28286 0.17634-0.83441 0.5463-1.0275 0.81839-1.9248 0.7777-2.5651-0.059639-0.93854 0.22724-1.3589 1.2631-1.8508 1.1272-0.5353 1.4273-0.50715 1.8234 0.17104 0.33465 0.573 0.4091 0.851 0.59858 2.235 0.07298 0.5331 0.32925 1.6113 0.56949 2.396 0.24024 0.78467 0.41242 1.4493 0.38263 1.4769-0.02979 0.027615-0.44943 0.23979-0.93252 0.4715-0.92004 0.44129-1.2244 0.49121-1.6256 0.2667z" opacity=".99"/>
  <path transform="scale(.26458)" d="m5.0976 84.601c-0.0092614-7.2208-0.051562-8.8544-0.23787-9.1865-0.18435-0.32857-0.24249-2.1598-0.31183-9.8223-0.046874-5.1801-0.034089-9.4694 0.028412-9.5318 0.062501-0.062367 0.14908-1.3853 0.19239-2.9399 0.34058-12.223 0.43505-14.294 0.66845-14.65 0.39856-0.60828 0.29336-9.6627-0.1742-14.993l-0.08502-0.96928 0.36933 0.42826c0.20313 0.23554 0.47838 0.56698 0.61165 0.73653 0.79231 1.0079 3.3045 1.135 4.5297 0.22913l0.43905-0.3246 0.09857 0.59616c0.16249 0.98275 0.09197 14.871-0.08259 16.266-0.08895 0.7108-0.18287 1.6195-0.20872 2.0193-0.02585 0.39983-0.08894 0.836-0.1402 0.96928-0.13337 0.34677-0.26907 2.579-0.26088 4.2916 0.0039 0.80548-0.06945 1.6415-0.1629 1.8578-0.1983 0.45903-0.51641 3.9878-0.58661 6.5073-0.026852 0.96373-0.090262 1.7937-0.14091 1.8443-0.050649 0.05065-0.092089 6.482-0.092089 14.292 0 7.8099-0.054522 14.322-0.12116 14.472-0.066638 0.14965-0.099815 1.5988-0.073726 3.2203l0.047434 2.9482h1.0649l0.10637-4.2406c0.0585-2.3323 0.11441-9.9472 0.12423-16.922 0.0098-6.9748 0.07952-13.663 0.15487-14.862 0.2275-3.6213 0.45266-6.1745 0.61969-7.0273 0.08702-0.44425 0.23844-2.1526 0.33648-3.7963 0.09804-1.6437 0.20583-3.1703 0.23953-3.3925 0.38305-2.5248 0.43382-4.1088 0.38319-11.954l-0.05473-8.4812 1.3364 0.05711c0.81446 0.03481 1.4196-0.01189 1.5493-0.11957 0.17469-0.14498 0.21004 0.26516 0.197 2.2853-0.0087 1.3541-0.06447 2.5372-0.12384 2.6292-0.05937 0.09194-0.15924 0.63716-0.22193 1.2116-0.06269 0.57444-0.19528 1.1898-0.29466 1.3675-0.12548 0.22438-0.21359 3.8027-0.28839 11.712-0.05924 6.264-0.19368 12.443-0.29875 13.731-0.22452 2.7529-0.30516 17.702-0.09803 18.174 0.17543 0.40002 0.24786 3.1562 0.30136 11.468l0.04158 6.4604-0.64619 0.35931c-2.9242 1.626-2.8403 1.6031-6.4619 1.7624l-2.2617 0.09947z" opacity=".99"/>
  <path transform="scale(.26458)" d="m3.4934 92.7c-0.054913-0.08885-0.24094-0.16155-0.4134-0.16155s-0.31356-0.10904-0.31356-0.24232c0-0.13387-0.14327-0.24232-0.32012-0.24232-0.31373 0-0.32168-0.15868-0.3984-7.9562-0.078983-8.0273-0.26986-15.696-0.47951-19.264-0.10092-1.7177-0.12903-13.968-0.077124-33.602 0.0094-3.554-0.03443-7.1833-0.097393-8.065l-0.11448-1.6032 0.4608 0.49873c0.3727 0.40338 0.6384 0.52041 1.3897 0.61212l0.92889 0.11339v0.91836c0 0.5051 0.075288 0.99364 0.16731 1.0857 0.24847 0.24847 0.42725 12.575 0.18659 12.865-0.27714 0.33394-0.36663 1.5117-0.54288 7.1452-0.088952 2.8432-0.20792 6.4417-0.26438 7.9966-0.056457 1.5549-0.10477 7.2252-0.10735 12.601-0.00376 7.8218 0.038805 9.8865 0.21317 10.339 0.16811 0.43628 0.23785 2.4562 0.30537 8.8447 0.079027 7.4776 0.062766 8.2793-0.16795 8.2793-0.1405 0-0.30038-0.0727-0.35529-0.16155z" opacity=".99"/>
 </g>
 <path d="m2.5646 24c0.014248 0.05699 0.020926 0.11643 0.042743 0.17097 0.00748 0.01871 0.033732 0.02472 0.042742 0.04274 0.00637 0.01274 0 0.0285 0 0.04274v0.04274 0.21371 0.17097c0 0.01425 0.00393 0.05644 0 0.04274-0.015356-0.05346-0.023074-0.10883-0.03461-0.16324" fill="none" stroke="#000" stroke-width=".26458px"/>
 <g>
  <path transform="scale(.26458)" d="m5.1398 84.521c-0.043825-5.0925-0.14699-9.2167-0.24244-9.6917-0.30785-1.532-0.30118-17.646 0.010757-25.99 0.15613-4.176 0.37211-8.2833 0.47996-9.1274 0.22476-1.7591 0.27413-10.932 0.078248-14.539l-0.1272-2.3424 0.53106 0.60385c0.6843 0.7781 1.4794 1.0924 2.7635 1.0924 0.78655 0 1.2093-0.09473 1.7822-0.39932l0.75102-0.39932-7e-3 8.0324c-0.0054 6.1082-0.06475 8.4968-0.24792 9.971-0.13248 1.0662-0.30511 3.1744-0.38363 4.6848-0.07852 1.5105-0.22001 3.1461-0.31443 3.6348-0.09442 0.48868-0.2483 1.7609-0.34195 2.8271-0.15832 1.8024-0.40458 17.841-0.5153 33.561l-0.047503 6.7444-1.3102 1.61e-4c-0.72062 9.9e-5 -1.6415 0.04559-2.0465 0.1011l-0.73629 0.10092-0.076288-8.8648z" fill="#a90000" opacity=".99"/>
  <path transform="scale(.26458)" d="m3.2895 92.533c-0.20098-0.080751-0.52043-0.29123-0.70988-0.46774-0.34066-0.31738-0.34596-0.42318-0.4797-9.5761-0.07438-5.0904-0.21638-11.145-0.31555-13.455-0.10052-2.3414-0.2079-13.566-0.24264-25.363-0.034278-11.639-0.10543-21.344-0.15811-21.566l-0.095785-0.40387 0.46243 0.44138c0.25434 0.24276 0.71424 0.48381 1.022 0.53567 1.3472 0.227 1.2049-0.05687 1.4313 2.8553 0.23651 3.043 0.16811 11.393-0.11483 14.019-0.31614 2.9336-0.53897 10.837-0.62851 22.293-0.07262 9.2913-0.04558 11.519 0.16861 13.893 0.3207 3.5541 0.43732 16.977 0.14727 16.952-0.066638-0.0056-0.2856-0.07631-0.48658-0.15706z" fill="#d11" opacity=".99"/>
  <path transform="scale(.26458)" d="m6.0344 106.5c-0.88168-0.49972-1.0778-0.70244-1.5125-1.5636-0.27472-0.54422-0.56255-1.357-0.63963-1.8062-0.44781-2.6097-0.63427-3.8561-0.58436-3.906 0.057778-0.05778 1.9441 0.29485 3.1033 0.58013 0.3554 0.08746 1.5395 0.16076 2.6312 0.16288 1.8917 0.0037 2.0548-0.02311 3.4691-0.56928 0.81621-0.31522 1.6007-0.6787 1.7433-0.80773 0.14258-0.12903 0.33832-0.2346 0.43498-0.2346 0.09666 0 0.2082-0.09087 0.24787-0.20193 0.29189-0.8173 0.19262 1.2354-0.17774 3.6752-0.22664 1.493-0.69247 2.86-1.1494 3.373-0.47305 0.53107-1.6396 1.0927-2.8784 1.3859-0.46674 0.11045-0.88903 0.2662-0.93843 0.34613-0.049395 0.0799-0.68526 0.14419-1.413 0.14282-1.2161-2e-3 -1.4052-0.049-2.3362-0.57666z" fill="#a10000" opacity=".99"/>
  <path transform="scale(.26458)" d="m8.2577 8.0818c-1.1692-0.5732-2.2729-1.3643-2.1862-1.567 0.67747-1.5835 0.90372-2.2861 0.9927-3.0824 0.058767-0.52593 0.22441-1.0937 0.36811-1.2618 0.32352-0.37833 1.4282-0.89777 1.9195-0.90253 0.47311-0.00459 0.96649 0.79341 1.0932 1.7682 0.05236 0.40272 0.30888 1.5932 0.57004 2.6456 0.26116 1.0523 0.47484 1.9703 0.47484 2.0398 0 0.18678-1.5343 0.81376-1.9685 0.80442-0.20566-0.0044263-0.77432-0.20434-1.2637-0.44425z" fill="#a90000" opacity=".99"/>
  <path transform="scale(.26458)" d="m7.625 23.194c-0.097026-0.15549-0.26666-0.28662-0.37698-0.29142-0.27273-0.011843-1.5737-1.8598-1.5737-2.2353 0-0.49625-0.39453-0.71873-0.83546-0.47114-0.20688 0.11616-0.42478 0.28512-0.48424 0.37546-0.25936 0.39409-0.94064 1.0473-1.0923 1.0473-0.091162 0-0.56716-0.40141-1.0578-0.89202-1.0355-1.0355-1.1053-1.3995-0.4995-2.6067 0.21588-0.43024 0.50423-1.2548 0.64077-1.8323 0.40203-1.7005 0.76874-2.977 0.90493-3.1502 0.069894-0.08885 0.32021-0.7763 0.55625-1.5277s0.4848-1.442 0.5528-1.5347c0.067994-0.092717 0.32554-0.65572 0.57233-1.2511 0.40882-0.98631 0.47611-1.0654 0.75698-0.89003 0.16955 0.10588 0.30827 0.27252 0.30827 0.3703 0 0.27216 1.534 1.0463 2.5588 1.2914 1.3208 0.3158 1.8748 0.28109 2.7723-0.17371 0.91395-0.46313 1.1308-0.49649 1.1308-0.17394 0 0.12646 0.18174 0.44591 0.40387 0.70989 0.22213 0.26398 0.40387 0.54281 0.40387 0.61962 0 0.07681 0.31208 0.75692 0.69351 1.5114 0.74754 1.4786 0.89042 1.8923 1.422 4.118 0.48929 2.0484 0.82288 3.0487 1.0667 3.1986 0.32969 0.20264 0.24593 0.41533-0.12533 0.31824-0.24664-0.0645-0.53547 0.10697-1.0904 0.64733-0.671 0.65335-0.84861 0.74111-1.5975 0.78943-0.92537 0.0597-1.1178-0.1087-1.2114-1.0602-0.02535-0.25759-0.17786-0.54837-0.33891-0.64619-0.40438-0.24559-0.91877 0.39203-0.91877 1.1389 0 0.61502-0.45047 1.6111-0.9117 2.0159-0.90003 0.78997-2.307 1.1028-2.6302 0.58489z" fill="#fff" opacity=".99"/>
  <path transform="scale(.26458)" d="m6.9666 98.677c-0.31098-0.06842-1.1325-0.23901-1.8256-0.37908-0.82458-0.16664-1.5366-0.43376-2.0597-0.77273-0.78848-0.51092-0.79949-0.52956-0.79949-1.3537 0-0.45959-0.10826-1.1925-0.24057-1.6286-0.30352-1.0005-0.31934-1.3368-0.050213-1.0676 0.10662 0.10662 0.30081 0.19386 0.43153 0.19386s0.35244 0.10095 0.49272 0.22434c0.14027 0.12339 0.61852 0.30638 1.0628 0.40664 0.99163 0.2238 4.7364 0.22296 5.9181-0.0013 0.4768-0.09051 1.1213-0.18008 1.4323-0.19904 0.31098-0.01897 0.92889-0.243 1.3731-0.49784 0.44425-0.25484 1.1349-0.62664 1.5347-0.82622l0.72696-0.36286 0.11049 1.1532c0.06077 0.63425 0.1785 1.4637 0.26163 1.8431 0.14393 0.65702 0.1271 0.70917-0.35281 1.0929-0.27717 0.22161-0.59175 0.47453-0.69907 0.56204-0.10731 0.08751-0.2313 0.15911-0.27553 0.15911s-0.3355 0.1731-0.64726 0.38467c-1.0535 0.71495-2.9648 1.2329-4.4732 1.2122-0.74547-0.01022-1.6098-0.07456-1.9208-0.14298z" fill="#fff" opacity=".99"/>
 </g>
</svg>
