<!-- Created with Inkscape (http://www.inkscape.org/) -->
<svg width="4.4739mm" height="28.531mm" version="1.1" viewBox="0 0 4.4739 28.531" xmlns="http://www.w3.org/2000/svg">
 <g transform="translate(-116.21 -233.78)">
  <path d="m102.05 154.88-34.231-63.233-73.038 92.947 49.56-52.096-110.97-40.741 64.861 31.036 4.4559-118.13-9.4741 71.277 113.72-32.265-70.716 13.015z" fill="none"/>
  <g transform="matrix(.39648 .70169 .92625 -.30036 -1100.9 -180.59)">
   <path d="m1008 882.94-1.9072 0.73376 0.9842 0.89085 0.5379 1.5329-0.1371 1.2184 2.0626-0.92919 0.1304-1.6027-0.6194-1.3323z" fill="#d82f04"/>
   <path d="m978.15 897.1s0.24813-0.0983 0.55822 0.59443c0.3468 0.77467 2e-3 0.90721 2e-3 0.90721l-2.7443 0.50653z" fill="#d82f04"/>
   <path d="m1005.1 884.17-23.994 10.041-5.477 5.0977 6.7811-1.2358 0.33268-1.9321-1.1346-0.82109 24.167-10.023 0.4179 1.1539-23.098 9.6952-0.29019 1.7956 23.73-10.064 3.1297-1.3903 0.1304-1.6992-0.652-1.3903-1.1003-0.59859-2.1517 0.8303 1.1079 1.0084 0.5331 1.4773-0.165 1.3696-1.0047 0.44977 0.2453-1.4745-0.5196-1.4552z" fill="none" stroke="#310900" stroke-linecap="round" stroke-linejoin="round" stroke-width=".25628"/>
  </g>
 </g>
</svg>
