<!-- Created with Inkscape (http://www.inkscape.org/) -->
<svg width="4.1781mm" height="49.375mm" version="1.1" viewBox="0 0 4.1781 49.375" xmlns="http://www.w3.org/2000/svg">
 <g transform="translate(-116.22 -212.95)">
  <path d="m102.05 154.88-34.231-63.233-73.038 92.947 49.56-52.096-110.97-40.741 64.861 31.036 4.4559-118.13-9.4741 71.277 113.72-32.265-70.716 13.015z" fill="none"/>
  <path d="m116.59 260.99-0.0707-2.7003 1.1226 0.73289 1.5084-0.14375 0.99218-0.80068-0.0396 2.9909-1.3234 0.99249-1.3667-0.0597z" fill="#4665bd"/>
  <path d="m117.77 217.33s7e-3 0.35279 0.71297 0.36929c0.78975 0.0185 0.77687-0.46965 0.77687-0.46965l-0.57162-3.5997z" fill="#4665bd"/>
  <path d="m116.56 256.8-0.19674-34.394 2.3554-9.3108 1.426 8.8865-1.5312 1.4098-1.1179-0.95196 0.27541 34.595 1.1402-0.0924-0.16429-33.125 1.4299-1.2871 0.0802 34.085-0.0433 4.5281-1.406 1.0427-1.4282-0.0692-0.91504-1.0261-0.0776-3.0478 1.2684 0.82211 1.4591-0.12065 1.1113-0.91327 0.0169-1.4554-1.1717 1.0655-1.4352 0.12558z" fill="none" stroke="#310900" stroke-linecap="round" stroke-linejoin="round" stroke-width=".28429"/>
 </g>
</svg>
